<svg width="39" height="39" viewBox="0 0 39 39" fill="none" xmlns="http://www.w3.org/2000/svg">
<path d="M0 39V34.6667H34.6667V39H0ZM8.66667 30.3333C6.28333 30.3333 4.24306 29.4847 2.54583 27.7875C0.848611 26.0903 0 24.05 0 21.6667V0H34.6667C35.8583 0 36.8788 0.424667 37.7282 1.274C38.5775 2.12333 39.0014 3.14311 39 4.33333V10.8333C39 12.025 38.5753 13.0455 37.726 13.8948C36.8767 14.7442 35.8569 15.1681 34.6667 15.1667H30.3333V21.6667C30.3333 24.05 29.4847 26.0903 27.7875 27.7875C26.0903 29.4847 24.05 30.3333 21.6667 30.3333H8.66667ZM30.3333 10.8333H34.6667V4.33333H30.3333V10.8333Z" fill="#FFFBFB"/>
</svg>
