<svg width="34" height="36" viewBox="0 0 34 36" fill="none" xmlns="http://www.w3.org/2000/svg">
<path d="M16.9797 -4.25851e-05C12.3048 0.00284293 8.48291 5.0191 8.48664 11.1969C8.49037 17.3748 12.3183 22.3863 16.9932 22.3834C21.6681 22.3805 25.4899 17.3643 25.4862 11.1864C25.4825 5.00861 21.6546 -0.0029281 16.9797 -4.25851e-05ZM8.1109 22.3889C3.60615 22.6155 -0.00390855 26.5125 -0.000990253 31.3473L0.00171188 35.824L34.0009 35.803L33.9982 31.3263C33.9952 26.4915 30.423 22.599 25.8755 22.3779C23.5822 25.1101 20.4383 26.858 16.9959 26.8601C13.5535 26.8622 10.4075 25.1183 8.1109 22.3889Z" fill="#F3CA9E"/>
</svg>
