<svg width="36" height="33" viewBox="0 0 36 33" fill="none" xmlns="http://www.w3.org/2000/svg">
<path d="M1.919 0.0111536C1.32215 0.127781 0.787676 0.529194 0.433163 1.12709C0.0786505 1.72498 -0.0668633 2.47038 0.0286332 3.1993C0.12413 3.92822 0.452814 4.58095 0.942379 5.01391C1.43194 5.44687 2.04229 5.62458 2.63914 5.50795H9.39045L9.79553 6.88215L11.6409 13.7531L13.4863 20.6241C13.6663 21.3387 14.4314 21.9983 15.0165 21.9983H30.7696C31.3997 21.9983 32.1199 21.3387 32.2999 20.6241L35.9456 6.88215C36.1257 6.16757 35.8556 5.50795 35.2255 5.50795H15.2416L13.5313 1.55026C13.3491 1.096 13.0678 0.711943 12.7184 0.440385C12.369 0.168827 11.965 0.0202976 11.5509 0.0111536L2.54912 0.0111536C2.41437 -0.00371788 2.2788 -0.00371788 2.14404 0.0111536C2.05411 0.00455154 1.96393 0.00455154 1.87399 0.0111536L1.919 0.0111536ZM16.1418 27.4951C14.8815 27.4951 13.8913 28.7044 13.8913 30.2435C13.8913 31.7826 14.8815 32.9919 16.1418 32.9919C17.402 32.9919 18.3922 31.7826 18.3922 30.2435C18.3922 28.7044 17.402 27.4951 16.1418 27.4951ZM29.6444 27.4951C28.3841 27.4951 27.394 28.7044 27.394 30.2435C27.394 31.7826 28.3841 32.9919 29.6444 32.9919C30.9046 32.9919 31.8948 31.7826 31.8948 30.2435C31.8948 28.7044 30.9046 27.4951 29.6444 27.4951Z" fill="#F3CA9E"/>
</svg>
