<svg width="21" height="21" viewBox="0 0 21 21" fill="none" xmlns="http://www.w3.org/2000/svg">
<path d="M13.6947 0C13.9541 0 14.2029 0.105367 14.3864 0.29292C14.5698 0.480474 14.6729 0.734852 14.6729 1.00009V1.99919L19.5639 2.00019V8.00074L17.5879 7.99974L20.2946 15.5964C20.4785 16.1045 20.5595 16.6455 20.5328 17.1865C20.506 17.7275 20.3721 18.2574 20.1391 18.7439C19.9061 19.2305 19.5788 19.6635 19.1772 20.0169C18.7756 20.3703 18.3079 20.6365 17.8026 20.7996C17.2973 20.9626 16.7649 21.0191 16.2377 20.9654C15.7104 20.9118 15.1993 20.7493 14.7353 20.4876C14.2713 20.226 13.8642 19.8708 13.5385 19.4434C13.2128 19.0161 12.9754 18.5256 12.8407 18.0017H8.68049C8.45807 18.8794 7.95074 19.6539 7.24158 20.1983C6.53243 20.7428 5.66346 21.0249 4.777 20.9986C3.89053 20.9722 3.03908 20.6389 2.3621 20.0532C1.68511 19.4675 1.2227 18.6641 1.05058 17.7747C0.733584 17.6056 0.468015 17.3509 0.282778 17.0383C0.0975405 16.7256 -0.000267017 16.367 5.47497e-07 16.0015V11.001H8.80374C8.80377 11.246 8.89173 11.4824 9.05094 11.6655C9.21015 11.8485 9.42954 11.9655 9.66748 11.9941L9.78193 12.0011H11.7383C11.9779 12.0011 12.2092 11.9112 12.3882 11.7484C12.5672 11.5856 12.6816 11.3613 12.7097 11.118L12.7165 11.001V2.00019H9.78193V0H13.6947ZM4.89097 15.0014C4.3721 15.0014 3.87449 15.2121 3.50759 15.5872C3.1407 15.9623 2.93458 16.4711 2.93458 17.0016C2.93458 17.5321 3.1407 18.0408 3.50759 18.4159C3.87449 18.791 4.3721 19.0018 4.89097 19.0018C5.40983 19.0018 5.90745 18.791 6.27434 18.4159C6.64123 18.0408 6.84735 17.5321 6.84735 17.0016C6.84735 16.4711 6.64123 15.9623 6.27434 15.5872C5.90745 15.2121 5.40983 15.0014 4.89097 15.0014ZM16.6293 15.0014C16.1104 15.0014 15.6128 15.2121 15.2459 15.5872C14.879 15.9623 14.6729 16.4711 14.6729 17.0016C14.6729 17.5321 14.879 18.0408 15.2459 18.4159C15.6128 18.791 16.1104 19.0018 16.6293 19.0018C17.1481 19.0018 17.6458 18.791 18.0127 18.4159C18.3796 18.0408 18.5857 17.5321 18.5857 17.0016C18.5857 16.4711 18.3796 15.9623 18.0127 15.5872C17.6458 15.2121 17.1481 15.0014 16.6293 15.0014ZM7.82555 2.00019C8.08498 2.00019 8.33379 2.10555 8.51723 2.29311C8.70068 2.48066 8.80374 2.73504 8.80374 3.00028V10.0009H5.47497e-07V3.00028C5.47497e-07 2.73504 0.10306 2.48066 0.286507 2.29311C0.469953 2.10555 0.718761 2.00019 0.978194 2.00019H7.82555ZM17.6075 4.00037H14.6729V6.00056H17.6075V4.00037ZM6.84735 4.00037H1.95639V5.00047H6.84735V4.00037Z" fill="black"/>
</svg>
