<svg width="16" height="16" viewBox="0 0 16 16" fill="none" xmlns="http://www.w3.org/2000/svg">
<g clip-path="url(#clip0_0_47)">
<path d="M11.9593 11.9603C10.8197 12.829 9.43209 13.3103 7.99935 13.3337C3.33268 13.3337 0.666016 8.00034 0.666016 8.00034C1.49528 6.45494 2.64544 5.10475 4.03935 4.04034M6.59935 2.82701C7.05824 2.7196 7.52806 2.6659 7.99935 2.66701C12.666 2.66701 15.3327 8.00034 15.3327 8.00034C14.928 8.75741 14.4454 9.47017 13.8927 10.127M9.41268 9.41368C9.22958 9.61017 9.00878 9.76778 8.76345 9.87709C8.51812 9.9864 8.25328 10.0452 7.98474 10.0499C7.7162 10.0547 7.44946 10.0053 7.20042 9.90467C6.95139 9.80408 6.72516 9.65436 6.53525 9.46444C6.34533 9.27453 6.19561 9.0483 6.09502 8.79927C5.99443 8.55023 5.94503 8.28349 5.94977 8.01495C5.95451 7.74641 6.01329 7.48157 6.1226 7.23624C6.23191 6.99091 6.38952 6.77011 6.58602 6.58701" stroke="#667085" stroke-width="2" stroke-linecap="round" stroke-linejoin="round"/>
<path d="M0.666016 0.666992L15.3327 15.3337" stroke="#667085" stroke-width="2" stroke-linecap="round" stroke-linejoin="round"/>
</g>
<defs>
<clipPath id="clip0_0_47">
<rect width="16" height="16" fill="white"/>
</clipPath>
</defs>
</svg>
