<svg width="80" height="20" viewBox="0 0 80 20" fill="none" xmlns="http://www.w3.org/2000/svg">
<g clip-path="url(#clip0_448_5635)">
<path d="M7.17652 4.14874C7.18159 4.13265 7.18782 4.12778 7.19112 4.12551C7.19643 4.12187 7.20579 4.11816 7.21823 4.11816C7.23066 4.11816 7.24003 4.12187 7.24534 4.12551C7.24864 4.12778 7.25486 4.13265 7.25995 4.14874L8.56788 8.28915C8.65412 8.56214 8.90733 8.74773 9.19363 8.74773H13.4467C13.4631 8.74773 13.4697 8.75203 13.473 8.75459C13.4782 8.75853 13.4845 8.76617 13.4882 8.77768C13.4921 8.78918 13.4916 8.79907 13.4898 8.80531C13.4887 8.80935 13.486 8.81674 13.4729 8.82652L10.0153 11.4104C9.79178 11.5775 9.69833 11.8677 9.78233 12.1338L11.099 16.3018C11.104 16.3177 11.1018 16.3253 11.1004 16.3291C11.0982 16.3352 11.0927 16.3436 11.0827 16.3506C11.0726 16.3578 11.0629 16.3602 11.0564 16.3604C11.0524 16.3604 11.0445 16.36 11.0311 16.35L7.61108 13.7942C7.37811 13.6201 7.05835 13.6201 6.82539 13.7942L3.40534 16.35C3.39198 16.36 3.38411 16.3604 3.38003 16.3604C3.37357 16.3602 3.36385 16.3578 3.35382 16.3506C3.34377 16.3436 3.33829 16.3352 3.33605 16.3291C3.33464 16.3253 3.33241 16.3177 3.33743 16.3018L4.65409 12.1338C4.73815 11.8677 4.64471 11.5775 4.42116 11.4104L0.963545 8.82652C0.950464 8.81674 0.947769 8.80935 0.946631 8.80532C0.944872 8.79907 0.9444 8.78918 0.948224 8.77768C0.952047 8.76617 0.958347 8.75853 0.963492 8.75459C0.966817 8.75203 0.973397 8.74773 0.989734 8.74773H5.24281C5.52909 8.74773 5.78234 8.56214 5.86858 8.28915L7.17652 4.14874Z" fill="#393939" stroke="#393939" stroke-width="0.6125"/>
</g>
<g clip-path="url(#clip1_448_5635)">
<path d="M23.1765 4.14874C23.1816 4.13265 23.1878 4.12778 23.1911 4.12551C23.1964 4.12187 23.2058 4.11816 23.2182 4.11816C23.2307 4.11816 23.24 4.12187 23.2453 4.12551C23.2486 4.12778 23.2549 4.13265 23.2599 4.14874L24.5679 8.28915C24.6541 8.56214 24.9073 8.74773 25.1936 8.74773H29.4467C29.4631 8.74773 29.4697 8.75203 29.473 8.75459C29.4782 8.75853 29.4845 8.76617 29.4882 8.77768C29.4921 8.78918 29.4916 8.79907 29.4898 8.80531C29.4887 8.80935 29.486 8.81674 29.4729 8.82652L26.0153 11.4104C25.7918 11.5775 25.6983 11.8677 25.7823 12.1338L27.099 16.3018C27.104 16.3177 27.1018 16.3253 27.1004 16.3291C27.0982 16.3352 27.0927 16.3436 27.0827 16.3506C27.0726 16.3578 27.0629 16.3602 27.0564 16.3604C27.0524 16.3604 27.0445 16.36 27.0311 16.35L23.6111 13.7942C23.3781 13.6201 23.0583 13.6201 22.8254 13.7942L19.4053 16.35C19.392 16.36 19.3841 16.3604 19.38 16.3604C19.3736 16.3602 19.3639 16.3578 19.3538 16.3506C19.3438 16.3436 19.3383 16.3352 19.3361 16.3291C19.3346 16.3253 19.3324 16.3177 19.3374 16.3018L20.6541 12.1338C20.7382 11.8677 20.6447 11.5775 20.4212 11.4104L16.9635 8.82652C16.9505 8.81674 16.9478 8.80935 16.9466 8.80532C16.9449 8.79907 16.9444 8.78918 16.9482 8.77768C16.952 8.76617 16.9583 8.75853 16.9635 8.75459C16.9668 8.75203 16.9734 8.74773 16.9897 8.74773H21.2428C21.5291 8.74773 21.7823 8.56214 21.8686 8.28915L23.1765 4.14874Z" fill="#393939" stroke="#393939" stroke-width="0.6125"/>
</g>
<g clip-path="url(#clip2_448_5635)">
<path d="M39.1765 4.14874C39.1816 4.13265 39.1878 4.12778 39.1911 4.12551C39.1964 4.12187 39.2058 4.11816 39.2182 4.11816C39.2307 4.11816 39.24 4.12187 39.2453 4.12551C39.2486 4.12778 39.2549 4.13265 39.2599 4.14874L40.5679 8.28915C40.6541 8.56214 40.9073 8.74773 41.1936 8.74773H45.4467C45.4631 8.74773 45.4697 8.75203 45.473 8.75459C45.4782 8.75853 45.4845 8.76617 45.4882 8.77768C45.4921 8.78918 45.4916 8.79907 45.4898 8.80531C45.4887 8.80935 45.486 8.81674 45.4729 8.82652L42.0153 11.4104C41.7918 11.5775 41.6983 11.8677 41.7823 12.1338L43.099 16.3018C43.104 16.3177 43.1018 16.3253 43.1004 16.3291C43.0982 16.3352 43.0927 16.3436 43.0827 16.3506C43.0726 16.3578 43.0629 16.3602 43.0564 16.3604C43.0524 16.3604 43.0445 16.36 43.0311 16.35L39.6111 13.7942C39.3781 13.6201 39.0583 13.6201 38.8254 13.7942L35.4053 16.35C35.392 16.36 35.3841 16.3604 35.38 16.3604C35.3736 16.3602 35.3639 16.3578 35.3538 16.3506C35.3438 16.3436 35.3383 16.3352 35.3361 16.3291C35.3346 16.3253 35.3324 16.3177 35.3374 16.3018L36.6541 12.1338C36.7382 11.8677 36.6447 11.5775 36.4212 11.4104L32.9635 8.82652C32.9505 8.81674 32.9478 8.80935 32.9466 8.80532C32.9449 8.79907 32.9444 8.78918 32.9482 8.77768C32.952 8.76617 32.9583 8.75853 32.9635 8.75459C32.9668 8.75203 32.9734 8.74773 32.9897 8.74773H37.2428C37.5291 8.74773 37.7823 8.56214 37.8686 8.28915L39.1765 4.14874Z" fill="#393939" stroke="#393939" stroke-width="0.6125"/>
</g>
<g clip-path="url(#clip3_448_5635)">
<path d="M55.1765 4.14874C55.1816 4.13265 55.1878 4.12778 55.1911 4.12551C55.1964 4.12187 55.2058 4.11816 55.2182 4.11816C55.2307 4.11816 55.24 4.12187 55.2453 4.12551C55.2486 4.12778 55.2549 4.13265 55.2599 4.14874L56.5679 8.28915C56.6541 8.56214 56.9073 8.74773 57.1936 8.74773H61.4467C61.4631 8.74773 61.4697 8.75203 61.473 8.75459C61.4782 8.75853 61.4845 8.76617 61.4882 8.77768C61.4921 8.78918 61.4916 8.79907 61.4898 8.80531C61.4887 8.80935 61.486 8.81674 61.4729 8.82652L58.0153 11.4104C57.7918 11.5775 57.6983 11.8677 57.7823 12.1338L59.099 16.3018C59.104 16.3177 59.1018 16.3253 59.1004 16.3291C59.0982 16.3352 59.0927 16.3436 59.0827 16.3506C59.0726 16.3578 59.0629 16.3602 59.0564 16.3604C59.0524 16.3604 59.0445 16.36 59.0311 16.35L55.6111 13.7942C55.3781 13.6201 55.0583 13.6201 54.8254 13.7942L51.4053 16.35C51.392 16.36 51.3841 16.3604 51.38 16.3604C51.3736 16.3602 51.3639 16.3578 51.3538 16.3506C51.3438 16.3436 51.3383 16.3352 51.3361 16.3291C51.3346 16.3253 51.3324 16.3177 51.3374 16.3018L52.6541 12.1338C52.7382 11.8677 52.6447 11.5775 52.4212 11.4104L48.9635 8.82652C48.9505 8.81674 48.9478 8.80935 48.9466 8.80532C48.9449 8.79907 48.9444 8.78918 48.9482 8.77768C48.952 8.76617 48.9583 8.75853 48.9635 8.75459C48.9668 8.75203 48.9734 8.74773 48.9897 8.74773H53.2428C53.5291 8.74773 53.7823 8.56214 53.8686 8.28915L55.1765 4.14874Z" fill="#393939" stroke="#393939" stroke-width="0.6125"/>
</g>
<g clip-path="url(#clip4_448_5635)">
<path d="M71.1765 4.14874C71.1816 4.13265 71.1878 4.12778 71.1911 4.12551C71.1964 4.12187 71.2058 4.11816 71.2182 4.11816C71.2307 4.11816 71.24 4.12187 71.2453 4.12551C71.2486 4.12778 71.2549 4.13265 71.2599 4.14874L72.5679 8.28915C72.6541 8.56214 72.9073 8.74773 73.1936 8.74773H77.4467C77.4631 8.74773 77.4697 8.75203 77.473 8.75459C77.4782 8.75853 77.4845 8.76617 77.4882 8.77768C77.4921 8.78918 77.4916 8.79907 77.4898 8.80531C77.4887 8.80935 77.486 8.81674 77.4729 8.82652L74.0153 11.4104C73.7918 11.5775 73.6983 11.8677 73.7823 12.1338L75.099 16.3018C75.104 16.3177 75.1018 16.3253 75.1004 16.3291C75.0982 16.3352 75.0927 16.3436 75.0827 16.3506C75.0726 16.3578 75.0629 16.3602 75.0564 16.3604C75.0524 16.3604 75.0445 16.36 75.0311 16.35L71.6111 13.7942C71.3781 13.6201 71.0583 13.6201 70.8254 13.7942L67.4053 16.35C67.392 16.36 67.3841 16.3604 67.38 16.3604C67.3736 16.3602 67.3639 16.3578 67.3538 16.3506C67.3438 16.3436 67.3383 16.3352 67.3361 16.3291C67.3346 16.3253 67.3324 16.3177 67.3374 16.3018L68.6541 12.1338C68.7382 11.8677 68.6447 11.5775 68.4212 11.4104L64.9635 8.82652C64.9505 8.81674 64.9478 8.80935 64.9466 8.80532C64.9449 8.79907 64.9444 8.78918 64.9482 8.77768C64.952 8.76617 64.9583 8.75853 64.9635 8.75459C64.9668 8.75203 64.9734 8.74773 64.9897 8.74773H69.2428C69.5291 8.74773 69.7823 8.56214 69.8686 8.28915L71.1765 4.14874Z" fill="#393939" stroke="#393939" stroke-width="0.6125"/>
</g>
<defs>
<clipPath id="clip0_448_5635">
<rect width="14" height="16" fill="white" transform="translate(0 2)"/>
</clipPath>
<clipPath id="clip1_448_5635">
<rect width="14" height="16" fill="white" transform="translate(16 2)"/>
</clipPath>
<clipPath id="clip2_448_5635">
<rect width="14" height="16" fill="white" transform="translate(32 2)"/>
</clipPath>
<clipPath id="clip3_448_5635">
<rect width="14" height="16" fill="white" transform="translate(48 2)"/>
</clipPath>
<clipPath id="clip4_448_5635">
<rect width="14" height="16" fill="white" transform="translate(64 2)"/>
</clipPath>
</defs>
</svg>
