<svg width="34" height="36" viewBox="0 0 34 36" fill="none" xmlns="http://www.w3.org/2000/svg">
<g filter="url(#filter0_d_0_6)">
<path d="M16.9803 0.000455577C12.3058 0.00334448 8.48421 5.02548 8.48794 11.2106C8.49167 17.3956 12.3193 22.413 16.9938 22.4102C21.6683 22.4073 25.4899 17.3851 25.4862 11.2001C25.4824 5.01498 21.6548 -0.00243332 16.9803 0.000455577ZM8.11223 22.4156C3.60784 22.6425 -0.0019403 26.544 0.00097777 31.3845L0.00367969 35.8665L34.0002 35.8455L33.9975 31.3635C33.9945 26.523 30.4226 22.626 25.8754 22.4047C23.5823 25.1401 20.4387 26.89 16.9965 26.8921C13.5544 26.8942 10.4086 25.1482 8.11223 22.4156Z" fill="#F3CA9E"/>
</g>
<defs>
<filter id="filter0_d_0_6" x="0" y="0" width="34" height="35.8663" filterUnits="userSpaceOnUse" color-interpolation-filters="sRGB">
<feFlood flood-opacity="0" result="BackgroundImageFix"/>
<feColorMatrix in="SourceAlpha" type="matrix" values="0 0 0 0 0 0 0 0 0 0 0 0 0 0 0 0 0 0 127 0" result="hardAlpha"/>
<feOffset/>
<feComposite in2="hardAlpha" operator="out"/>
<feColorMatrix type="matrix" values="0 0 0 0 1 0 0 0 0 1 0 0 0 0 1 0 0 0 0.01 0"/>
<feBlend mode="normal" in2="BackgroundImageFix" result="effect1_dropShadow_0_6"/>
<feBlend mode="normal" in="SourceGraphic" in2="effect1_dropShadow_0_6" result="shape"/>
</filter>
</defs>
</svg>
