<svg width="47" height="47" viewBox="0 0 47 47" fill="none" xmlns="http://www.w3.org/2000/svg">
<g filter="url(#filter0_d_467_6594)">
<path d="M11.8389 38.8703V21.0871C9.63627 20.6336 7.7895 19.7267 6.29861 18.3662C4.80772 17.0057 4.06314 15.4185 4.06487 13.6046V1.32754e-06H9.24757V13.6046H11.8389V1.32754e-06H17.0216V13.6046H19.613V1.32754e-06H24.7957V13.6046C24.7957 15.4185 24.0502 17.0057 22.5593 18.3662C21.0685 19.7267 19.2225 20.6336 17.0216 21.0871V38.8703H11.8389ZM37.7524 38.8703V23.3222H29.9784V9.71757C29.9784 7.02904 31.2421 4.73699 33.7695 2.84142C36.297 0.945845 39.3522 -0.00129435 42.9351 1.32754e-06V38.8703H37.7524Z" fill="white"/>
<path d="M16.5135 21.0871V38.3622H12.347V21.0871V20.673L11.9414 20.5895C9.8178 20.1522 8.05695 19.2829 6.64111 17.9909C5.24261 16.7147 4.5714 15.2591 4.57298 13.6051V13.6046V0.508109H8.73946V13.6046V14.1127H9.24757H11.8389H12.347V13.6046V0.508109H16.5135V13.6046V14.1127H17.0216H19.613H20.1211V13.6046V0.508109H24.2876V13.6046C24.2876 15.2588 23.6154 16.7146 22.2168 17.9909C20.8009 19.2829 19.0409 20.1523 16.9191 20.5895L16.5135 20.673V21.0871ZM19.613 13.6046V13.0965L17.0216 0.508109V13.0965V13.6046H17.5297H19.1049H19.613ZM12.347 0H16.5135H12.347ZM11.8389 13.0965V0.508109H9.24757V13.0965V13.6046H9.75568H11.3308H11.8389V13.0965ZM4.57298 0H8.73946H4.57298ZM4.06487 13.6046V0.508109L11.8389 21.0871C9.63627 20.6336 7.7895 19.7267 6.29861 18.3662C4.80772 17.0057 4.06314 15.4185 4.06487 13.6046ZM42.427 0.514534V38.3622H38.2605V23.3222V22.8141H37.7524H30.4865V9.71757C30.4865 7.21821 31.6496 5.06653 34.0744 3.2479C36.3835 1.51608 39.1598 0.59901 42.427 0.514534Z" stroke="#FFF8F8"/>
</g>
<defs>
<filter id="filter0_d_467_6594" x="0" y="0" width="47" height="47" filterUnits="userSpaceOnUse" color-interpolation-filters="sRGB">
<feFlood flood-opacity="0" result="BackgroundImageFix"/>
<feColorMatrix in="SourceAlpha" type="matrix" values="0 0 0 0 0 0 0 0 0 0 0 0 0 0 0 0 0 0 127 0" result="hardAlpha"/>
<feOffset dy="4"/>
<feGaussianBlur stdDeviation="2"/>
<feComposite in2="hardAlpha" operator="out"/>
<feColorMatrix type="matrix" values="0 0 0 0 0 0 0 0 0 0 0 0 0 0 0 0 0 0 0.25 0"/>
<feBlend mode="normal" in2="BackgroundImageFix" result="effect1_dropShadow_467_6594"/>
<feBlend mode="normal" in="SourceGraphic" in2="effect1_dropShadow_467_6594" result="shape"/>
</filter>
</defs>
</svg>
