<svg width="18" height="18" viewBox="0 0 18 18" fill="none" xmlns="http://www.w3.org/2000/svg">
<path d="M8 11H9.5C10.4283 11 11.3185 10.6313 11.9749 9.97487C12.6313 9.3185 13 8.42826 13 7.5C13 6.57174 12.6313 5.6815 11.9749 5.02513C11.3185 4.36875 10.4283 4 9.5 4H6V14H8V11ZM1 0H17C17.2652 0 17.5196 0.105357 17.7071 0.292893C17.8946 0.48043 18 0.734784 18 1V17C18 17.2652 17.8946 17.5196 17.7071 17.7071C17.5196 17.8946 17.2652 18 17 18H1C0.734784 18 0.48043 17.8946 0.292893 17.7071C0.105357 17.5196 0 17.2652 0 17V1C0 0.734784 0.105357 0.48043 0.292893 0.292893C0.48043 0.105357 0.734784 0 1 0ZM8 6H9.5C9.89782 6 10.2794 6.15804 10.5607 6.43934C10.842 6.72064 11 7.10218 11 7.5C11 7.89782 10.842 8.27936 10.5607 8.56066C10.2794 8.84196 9.89782 9 9.5 9H8V6Z" fill="black"/>
</svg>
