<svg width="43" height="34" viewBox="0 0 43 34" fill="none" xmlns="http://www.w3.org/2000/svg">
<path d="M21.3707 32.6447L4.92505 18.0885L4.89527 18.0622L4.86351 18.0382C2.47611 16.2398 1.00741 13.6035 1.00741 10.701C1.00741 5.46219 5.864 1.00741 12.1278 1.00741C15.5593 1.00741 18.6034 2.36126 20.6313 4.45701L21.3003 5.14847L21.382 5.0764L21.5258 5.20328L22.1947 4.5033C24.2223 2.38128 27.2859 1.00741 30.7426 1.00741C37.0065 1.00741 41.8631 5.46219 41.8631 10.701C41.8631 13.7145 40.2791 16.4429 37.7274 18.242C36.2747 19.2663 31.9845 23.0554 28.1289 26.5185C26.1847 28.2648 24.3279 29.9494 22.9573 31.1973C22.3035 31.7926 21.7602 32.2886 21.3707 32.6447Z" stroke="#333333" stroke-width="2"/>
</svg>
