<svg width="37" height="33" viewBox="0 0 37 33" fill="none" xmlns="http://www.w3.org/2000/svg">
<path d="M2.7336 0.0110296C2.14338 0.12636 1.61485 0.523308 1.26428 1.11455C0.913713 1.70579 0.769818 2.4429 0.864252 3.16371C0.958687 3.88453 1.28372 4.53 1.76784 4.95814C2.25196 5.38629 2.85551 5.56202 3.44573 5.44669H10.122L10.5225 6.80561L12.3474 13.6002L14.1722 20.3948C14.3502 21.1014 15.1069 21.7537 15.6855 21.7537H31.2633C31.8864 21.7537 32.5986 21.1014 32.7766 20.3948L36.3818 6.80561C36.5598 6.09897 36.2928 5.44669 35.6696 5.44669H15.908L14.2167 1.53301C14.0366 1.08381 13.7584 0.704025 13.4129 0.435487C13.0673 0.166949 12.6678 0.0200719 12.2583 0.0110296L3.35671 0.0110296C3.22346 -0.00367653 3.08939 -0.00367653 2.95614 0.0110296C2.8672 0.00450092 2.77802 0.00450092 2.68909 0.0110296L2.7336 0.0110296ZM16.7982 27.1893C15.5519 27.1893 14.5728 28.3852 14.5728 29.9072C14.5728 31.4292 15.5519 32.625 16.7982 32.625C18.0444 32.625 19.0236 31.4292 19.0236 29.9072C19.0236 28.3852 18.0444 27.1893 16.7982 27.1893ZM30.1506 27.1893C28.9044 27.1893 27.9252 28.3852 27.9252 29.9072C27.9252 31.4292 28.9044 32.625 30.1506 32.625C31.3969 32.625 32.376 31.4292 32.376 29.9072C32.376 28.3852 31.3969 27.1893 30.1506 27.1893Z" fill="#F3CA9E"/>
</svg>
