<svg width="36" height="33" viewBox="0 0 36 33" fill="none" xmlns="http://www.w3.org/2000/svg">
<path d="M1.89529 0.0110296C1.30581 0.12636 0.777943 0.523308 0.427811 1.11455C0.0776787 1.70579 -0.0660371 2.4429 0.0282794 3.16371C0.122596 3.88453 0.447219 4.53 0.930735 4.95814C1.41425 5.38629 2.01705 5.56202 2.60653 5.44669H9.27443L9.6745 6.80561L11.4971 13.6002L13.3196 20.3948C13.4974 21.1014 14.2531 21.7537 14.831 21.7537H30.3894C31.0118 21.7537 31.723 21.1014 31.9008 20.3948L35.5015 6.80561C35.6793 6.09897 35.4126 5.44669 34.7902 5.44669H15.0533L13.3641 1.53301C13.1842 1.08381 12.9063 0.704025 12.5612 0.435487C12.2161 0.166949 11.8171 0.0200719 11.4082 0.0110296L2.51763 0.0110296C2.38454 -0.00367653 2.25064 -0.00367653 2.11755 0.0110296C2.02873 0.00450092 1.93966 0.00450092 1.85084 0.0110296L1.89529 0.0110296ZM15.9423 27.1893C14.6976 27.1893 13.7197 28.3852 13.7197 29.9072C13.7197 31.4292 14.6976 32.625 15.9423 32.625C17.187 32.625 18.165 31.4292 18.165 29.9072C18.165 28.3852 17.187 27.1893 15.9423 27.1893ZM29.2781 27.1893C28.0334 27.1893 27.0555 28.3852 27.0555 29.9072C27.0555 31.4292 28.0334 32.625 29.2781 32.625C30.5228 32.625 31.5007 31.4292 31.5007 29.9072C31.5007 28.3852 30.5228 27.1893 29.2781 27.1893Z" fill="#F3CA9E"/>
</svg>
