<svg width="72" height="54" viewBox="0 0 72 54" fill="none" xmlns="http://www.w3.org/2000/svg">
<path d="M45.9771 0.0203996C44.0229 0.173788 42.1714 1.17081 41.1429 2.628C39.8057 4.62206 29.9314 19.4241 27.9771 20.8812C26.0229 22.3384 23.4514 23.0287 20.5714 23.0287V53.7064H56.5714C58.7314 53.7064 60.5829 52.7094 61.4057 51.3289C61.4057 51.3289 72 29.0108 72 26.8634C72 24.716 69.7371 23.0287 66.8571 23.0287H51.4286C48.5486 23.0287 46.2857 21.1113 46.2857 19.194C46.2857 17.2766 50.2971 7.07627 51.12 5.08222C51.9429 3.08817 50.6057 0.940731 47.9314 0.250482C47.2114 0.0970939 46.6971 -0.0562946 45.9771 0.0203996ZM0 23.0287V53.7064H10.2857V23.0287H0Z" fill="#F3CA9E"/>
</svg>
