<svg width="16" height="16" viewBox="0 0 16 16" fill="none" xmlns="http://www.w3.org/2000/svg">
<g clip-path="url(#clip0_105_1932)">
<path d="M4.96184 3.56668C5.38784 3.56668 5.78184 3.60001 6.14184 3.69868C6.46851 3.75871 6.78034 3.8819 7.05984 4.06135C7.3225 4.22601 7.51917 4.45735 7.64984 4.75401C7.78117 5.05068 7.8465 5.41401 7.8465 5.80935C7.8465 6.27135 7.7485 6.66668 7.51917 6.96335C7.3225 7.26068 6.9945 7.52401 6.60117 7.72201C7.1585 7.88735 7.5845 8.18401 7.8465 8.57935C8.10917 8.97535 8.27317 9.47001 8.27317 10.0307C8.27317 10.4927 8.1745 10.888 8.0105 11.218C7.8465 11.548 7.5845 11.8447 7.28917 12.0427C6.96836 12.2549 6.61373 12.4109 6.2405 12.504C5.84717 12.6033 5.45384 12.6693 5.0605 12.6693H0.666504V3.56668H4.96184ZM4.69917 7.26001C5.05984 7.26001 5.35517 7.16135 5.5845 6.99668C5.81384 6.83201 5.9125 6.53468 5.9125 6.17201C5.9125 5.97401 5.87917 5.77601 5.81384 5.64468C5.7485 5.51268 5.64984 5.41335 5.51917 5.31468C5.38784 5.24868 5.2565 5.18268 5.0925 5.15001C4.9285 5.11668 4.76517 5.11668 4.56784 5.11668H2.6665V7.26068H4.69984L4.69917 7.26001ZM4.79784 11.152C4.9945 11.152 5.19117 11.1187 5.35517 11.086C5.52075 11.0545 5.67736 10.9869 5.81384 10.888C5.94743 10.7915 6.05919 10.6679 6.14184 10.5253C6.20717 10.3607 6.27317 10.1627 6.27317 9.93201C6.27317 9.47001 6.14184 9.14001 5.87984 8.90935C5.61717 8.71135 5.2565 8.61268 4.8305 8.61268H2.6665V11.1527H4.79784V11.152ZM11.1258 11.1187C11.3878 11.3827 11.7812 11.5147 12.3058 11.5147C12.6665 11.5147 12.9945 11.416 13.2565 11.2513C13.5192 11.0533 13.6832 10.8553 13.7485 10.6573H15.3552C15.0925 11.4487 14.6992 12.0093 14.1752 12.372C13.6498 12.702 13.0272 12.9 12.2732 12.9C11.7908 12.9015 11.3124 12.8119 10.8632 12.636C10.459 12.4844 10.0985 12.2352 9.81384 11.9107C9.50937 11.6071 9.28431 11.2332 9.1585 10.822C8.9945 10.3933 8.9285 9.93201 8.9285 9.40401C8.9285 8.90935 8.9945 8.44801 9.1585 8.01868C9.31618 7.60541 9.5495 7.22514 9.8465 6.89735C10.1418 6.60068 10.5025 6.33735 10.8958 6.17201C11.3336 5.99606 11.8013 5.90641 12.2732 5.90801C12.8305 5.90801 13.3225 6.00735 13.7485 6.23801C14.1752 6.46868 14.5025 6.73268 14.7652 7.12868C15.0331 7.50903 15.2328 7.93315 15.3552 8.38201C15.4205 8.84335 15.4532 9.30535 15.4205 9.83268H10.6665C10.6665 10.3607 10.8632 10.8553 11.1258 11.1193V11.1187ZM13.1912 7.65601C12.9618 7.42535 12.6012 7.29335 12.1745 7.29335C11.8798 7.29335 11.6498 7.35935 11.4532 7.45801C11.2565 7.55735 11.1258 7.68935 10.9945 7.82135C10.8738 7.94885 10.794 8.10949 10.7652 8.28268C10.7318 8.44801 10.6992 8.57935 10.6992 8.71135H13.6498C13.5845 8.21668 13.4205 7.88735 13.1912 7.65601V7.65601ZM10.3058 4.19335H13.9778V5.08401H10.3065V4.19335H10.3058Z" fill="white"/>
</g>
<defs>
<clipPath id="clip0_105_1932">
<rect width="16" height="16" fill="white"/>
</clipPath>
</defs>
</svg>
