<svg width="16" height="16" viewBox="0 0 16 16" fill="none" xmlns="http://www.w3.org/2000/svg">
<g clip-path="url(#clip0_105_1925)">
<path d="M14.7747 3.77065C14.2657 3.99578 13.726 4.14363 13.1734 4.20932C13.7559 3.86094 14.1918 3.31266 14.4 2.66665C13.8534 2.99198 13.254 3.21998 12.6294 3.34331C12.2098 2.89437 11.6536 2.59662 11.0473 2.49637C10.4411 2.39612 9.81866 2.49898 9.27688 2.78895C8.7351 3.07892 8.30429 3.53977 8.05145 4.09984C7.7986 4.65992 7.73787 5.28784 7.8787 5.88598C6.77011 5.83042 5.68559 5.54233 4.69556 5.04042C3.70553 4.53852 2.83212 3.83401 2.13204 2.97265C1.88423 3.39828 1.75401 3.88213 1.7547 4.37465C1.7547 5.34131 2.2467 6.19532 2.9947 6.69532C2.55204 6.68138 2.11912 6.56184 1.73204 6.34665V6.38131C1.73217 7.02512 1.95495 7.64906 2.3626 8.14735C2.77025 8.64565 3.33769 8.98763 3.9687 9.11532C3.55778 9.22667 3.12691 9.24309 2.7087 9.16332C2.88661 9.71747 3.23337 10.2021 3.70043 10.5494C4.16749 10.8967 4.73145 11.0892 5.31337 11.1C4.73502 11.5542 4.07282 11.89 3.36462 12.0881C2.65642 12.2862 1.91612 12.3428 1.18604 12.2546C2.4605 13.0743 3.9441 13.5094 5.45937 13.508C10.588 13.508 13.3927 9.25932 13.3927 5.57465C13.3927 5.45465 13.3894 5.33332 13.384 5.21465C13.9299 4.82009 14.4011 4.33133 14.7754 3.77131L14.7747 3.77065Z" fill="white"/>
</g>
<defs>
<clipPath id="clip0_105_1925">
<rect width="16" height="16" fill="white"/>
</clipPath>
</defs>
</svg>
