<svg width="8" height="8" viewBox="0 0 8 8" fill="none" xmlns="http://www.w3.org/2000/svg">
<g clip-path="url(#clip0_105_1597)">
<path d="M1.50016 3.33333C1.34695 3.33333 1.19525 3.30316 1.0537 3.24453C0.912152 3.1859 0.78354 3.09996 0.675205 2.99162C0.56687 2.88329 0.480934 2.75468 0.422303 2.61313C0.363673 2.47158 0.333496 2.31988 0.333496 2.16667C0.333496 2.01346 0.363673 1.86175 0.422303 1.7202C0.480934 1.57866 0.56687 1.45004 0.675205 1.34171C0.78354 1.23337 0.912152 1.14744 1.0537 1.08881C1.19525 1.03018 1.34695 1 1.50016 1C1.80958 1 2.10633 1.12292 2.32512 1.34171C2.54391 1.5605 2.66683 1.85725 2.66683 2.16667C2.66683 2.47609 2.54391 2.77283 2.32512 2.99162C2.10633 3.21042 1.80958 3.33333 1.50016 3.33333V3.33333ZM1.50016 2.66667C1.63277 2.66667 1.75995 2.61399 1.85372 2.52022C1.94748 2.42645 2.00016 2.29927 2.00016 2.16667C2.00016 2.03406 1.94748 1.90688 1.85372 1.81311C1.75995 1.71935 1.63277 1.66667 1.50016 1.66667C1.36755 1.66667 1.24038 1.71935 1.14661 1.81311C1.05284 1.90688 1.00016 2.03406 1.00016 2.16667C1.00016 2.29927 1.05284 2.42645 1.14661 2.52022C1.24038 2.61399 1.36755 2.66667 1.50016 2.66667V2.66667ZM7.3335 3.33333H6.66683C6.66683 2.97971 6.52635 2.64057 6.27631 2.39052C6.02626 2.14048 5.68712 2 5.3335 2C4.97987 2 4.64074 2.14048 4.39069 2.39052C4.14064 2.64057 4.00016 2.97971 4.00016 3.33333V5C4.00016 5.35362 4.14064 5.69276 4.39069 5.94281C4.64074 6.19286 4.97987 6.33333 5.3335 6.33333C5.68712 6.33333 6.02626 6.19286 6.27631 5.94281C6.52635 5.69276 6.66683 5.35362 6.66683 5H7.3335C7.3335 5.53043 7.12278 6.03914 6.74771 6.41421C6.37264 6.78929 5.86393 7 5.3335 7C4.80306 7 4.29436 6.78929 3.91928 6.41421C3.54421 6.03914 3.3335 5.53043 3.3335 5V3.33333C3.3335 2.8029 3.54421 2.29419 3.91928 1.91912C4.29436 1.54405 4.80306 1.33333 5.3335 1.33333C5.86393 1.33333 6.37264 1.54405 6.74771 1.91912C7.12278 2.29419 7.3335 2.8029 7.3335 3.33333V3.33333Z" fill="#393939"/>
</g>
<defs>
<clipPath id="clip0_105_1597">
<rect width="8" height="8" fill="white"/>
</clipPath>
</defs>
</svg>
