<svg width="16" height="16" viewBox="0 0 16 16" fill="none" xmlns="http://www.w3.org/2000/svg">
<g clip-path="url(#clip0_105_1918)">
<path d="M14.3622 4.33199C14.6668 5.51999 14.6668 7.99999 14.6668 7.99999C14.6668 7.99999 14.6668 10.48 14.3622 11.668C14.1928 12.3247 13.6975 12.8413 13.0702 13.016C11.9308 13.3333 8.00016 13.3333 8.00016 13.3333C8.00016 13.3333 4.0715 13.3333 2.93016 13.016C2.30016 12.8387 1.8055 12.3227 1.63816 11.668C1.3335 10.48 1.3335 7.99999 1.3335 7.99999C1.3335 7.99999 1.3335 5.51999 1.63816 4.33199C1.8075 3.67532 2.30283 3.15866 2.93016 2.98399C4.0715 2.66666 8.00016 2.66666 8.00016 2.66666C8.00016 2.66666 11.9308 2.66666 13.0702 2.98399C13.7002 3.16132 14.1948 3.67732 14.3622 4.33199V4.33199ZM6.66683 10.3333L10.6668 7.99999L6.66683 5.66666V10.3333Z" fill="white"/>
</g>
<defs>
<clipPath id="clip0_105_1918">
<rect width="16" height="16" fill="white"/>
</clipPath>
</defs>
</svg>
