<svg width="16" height="16" viewBox="0 0 16 16" fill="none" xmlns="http://www.w3.org/2000/svg">
<g clip-path="url(#clip0_105_1911)">
<path d="M8.00016 1.33334C9.8115 1.33334 10.0375 1.34001 10.7482 1.37334C11.4582 1.40668 11.9415 1.51801 12.3668 1.68334C12.8068 1.85268 13.1775 2.08201 13.5482 2.45201C13.8872 2.78527 14.1495 3.1884 14.3168 3.63334C14.4815 4.05801 14.5935 4.54201 14.6268 5.25201C14.6582 5.96268 14.6668 6.18868 14.6668 8.00001C14.6668 9.81134 14.6602 10.0373 14.6268 10.748C14.5935 11.458 14.4815 11.9413 14.3168 12.3667C14.1499 12.8119 13.8876 13.2151 13.5482 13.548C13.2148 13.8869 12.8117 14.1492 12.3668 14.3167C11.9422 14.4813 11.4582 14.5933 10.7482 14.6267C10.0375 14.658 9.8115 14.6667 8.00016 14.6667C6.18883 14.6667 5.96283 14.66 5.25216 14.6267C4.54216 14.5933 4.05883 14.4813 3.6335 14.3167C3.18838 14.1497 2.78518 13.8873 2.45216 13.548C2.1131 13.2148 1.85078 12.8117 1.6835 12.3667C1.51816 11.942 1.40683 11.458 1.3735 10.748C1.34216 10.0373 1.3335 9.81134 1.3335 8.00001C1.3335 6.18868 1.34016 5.96268 1.3735 5.25201C1.40683 4.54134 1.51816 4.05868 1.6835 3.63334C1.85032 3.18813 2.1127 2.78489 2.45216 2.45201C2.78528 2.11283 3.18845 1.8505 3.6335 1.68334C4.05883 1.51801 4.5415 1.40668 5.25216 1.37334C5.96283 1.34201 6.18883 1.33334 8.00016 1.33334ZM8.00016 4.66668C7.11611 4.66668 6.26826 5.01787 5.64314 5.64299C5.01802 6.26811 4.66683 7.11596 4.66683 8.00001C4.66683 8.88407 5.01802 9.73191 5.64314 10.357C6.26826 10.9822 7.11611 11.3333 8.00016 11.3333C8.88422 11.3333 9.73206 10.9822 10.3572 10.357C10.9823 9.73191 11.3335 8.88407 11.3335 8.00001C11.3335 7.11596 10.9823 6.26811 10.3572 5.64299C9.73206 5.01787 8.88422 4.66668 8.00016 4.66668ZM12.3335 4.50001C12.3335 4.279 12.2457 4.06703 12.0894 3.91075C11.9331 3.75447 11.7212 3.66668 11.5002 3.66668C11.2791 3.66668 11.0672 3.75447 10.9109 3.91075C10.7546 4.06703 10.6668 4.279 10.6668 4.50001C10.6668 4.72102 10.7546 4.93299 10.9109 5.08927C11.0672 5.24555 11.2791 5.33334 11.5002 5.33334C11.7212 5.33334 11.9331 5.24555 12.0894 5.08927C12.2457 4.93299 12.3335 4.72102 12.3335 4.50001ZM8.00016 6.00001C8.5306 6.00001 9.0393 6.21072 9.41438 6.5858C9.78945 6.96087 10.0002 7.46958 10.0002 8.00001C10.0002 8.53044 9.78945 9.03915 9.41438 9.41422C9.0393 9.7893 8.5306 10 8.00016 10C7.46973 10 6.96102 9.7893 6.58595 9.41422C6.21088 9.03915 6.00016 8.53044 6.00016 8.00001C6.00016 7.46958 6.21088 6.96087 6.58595 6.5858C6.96102 6.21072 7.46973 6.00001 8.00016 6.00001Z" fill="white"/>
</g>
<defs>
<clipPath id="clip0_105_1911">
<rect width="16" height="16" fill="white"/>
</clipPath>
</defs>
</svg>
