<svg width="16" height="16" viewBox="0 0 16 16" fill="none" xmlns="http://www.w3.org/2000/svg">
<g clip-path="url(#clip0_105_1939)">
<path d="M13.3262 7.71468C13.2715 6.66529 12.9065 5.65575 12.2775 4.81401C12.0858 5.02043 11.881 5.21417 11.6642 5.39401C10.9981 5.94724 10.2538 6.3988 9.4555 6.73401C9.56683 6.96734 9.66883 7.19334 9.75883 7.40668V7.40868C9.78422 7.46829 9.80867 7.52829 9.83216 7.58868C10.8415 7.47534 11.9055 7.51668 12.9368 7.65601C13.0742 7.67468 13.2035 7.69468 13.3262 7.71468ZM7.0695 2.74801C7.71919 3.66346 8.3183 4.61377 8.86416 5.59468C9.6795 5.27334 10.3535 4.86801 10.8962 4.41668C11.0845 4.26143 11.2618 4.09325 11.4268 3.91334C10.4675 3.10649 9.2537 2.6649 8.00016 2.66668C7.68819 2.66646 7.37678 2.69345 7.0695 2.74734V2.74801ZM2.8355 6.66468C3.28965 6.65322 3.74326 6.62587 4.1955 6.58268C5.28859 6.48491 6.37235 6.30168 7.43683 6.03468C6.8805 5.06815 6.27986 4.12782 5.63683 3.21668C4.94998 3.55694 4.34434 4.04095 3.86099 4.63587C3.37765 5.23079 3.02791 5.9227 2.8355 6.66468ZM3.8555 11.3567C4.11416 10.9787 4.45416 10.5533 4.9055 10.0907C5.87483 9.09734 7.01883 8.32401 8.34283 7.89734L8.38416 7.88534C8.27416 7.64268 8.17083 7.42601 8.06683 7.22201C6.84283 7.57868 5.5535 7.80134 4.26883 7.91668C3.64216 7.97334 3.08016 7.99801 2.66683 8.00201C2.66565 9.22374 3.08569 10.4085 3.85616 11.3567H3.8555ZM10.0035 12.9433C9.74641 11.6468 9.3825 10.3738 8.9155 9.13734C7.58083 9.62201 6.5175 10.3307 5.6955 11.176C5.36377 11.5109 5.06937 11.8809 4.8175 12.2793C5.7367 12.9652 6.85328 13.335 8.00016 13.3333C8.68677 13.3343 9.36707 13.2023 10.0035 12.9447V12.9433ZM11.2522 12.2267C12.293 11.4265 13.0021 10.2705 13.2435 8.98001C13.0168 8.92334 12.7295 8.86668 12.4135 8.82268C11.7109 8.7215 10.998 8.71411 10.2935 8.80068C10.6902 9.9199 11.0105 11.0647 11.2522 12.2273V12.2267ZM8.00016 14.6667C4.31816 14.6667 1.3335 11.682 1.3335 8.00001C1.3335 4.31801 4.31816 1.33334 8.00016 1.33334C11.6822 1.33334 14.6668 4.31801 14.6668 8.00001C14.6668 11.682 11.6822 14.6667 8.00016 14.6667Z" fill="white"/>
</g>
<defs>
<clipPath id="clip0_105_1939">
<rect width="16" height="16" fill="white"/>
</clipPath>
</defs>
</svg>
