<svg width="38" height="73" viewBox="0 0 38 73" fill="none" xmlns="http://www.w3.org/2000/svg">
<path d="M1.57895 7.65083L16.0419 1.66002L22.0327 16.122L36.4957 22.1128L30.5049 36.5758L36.4957 51.0377L22.0327 57.0285L16.0419 71.4905L1.57895 65.4997V7.65083ZM1.57895 36.5758L22.0327 16.122L1.57895 36.5758Z" fill="#5B0017"/>
<path fill-rule="evenodd" clip-rule="evenodd" d="M16.2345 72.7031L22.4096 57.7964L37.3174 51.6213L31.1423 36.7146L37.3173 21.8068L22.4096 15.6318L16.2345 0.725044L0.504883 7.24051V36.3742L0.504931 36.9483L0.504883 37.5365V66.1877L16.2345 72.7031ZM2.14861 34.7304V8.33881L15.345 2.87267L20.8111 16.068L2.14861 34.7304ZM21.9734 17.2303L35.1697 22.6964L29.7036 35.8927H3.31091L21.9734 17.2303ZM3.31195 37.5365H29.7036L35.1697 50.7318L21.9734 56.1979L3.31195 37.5365ZM20.8111 57.3602L15.345 70.5555L2.14861 65.0894V38.6977L20.8111 57.3602Z" fill="#CC9D2F"/>
<path d="M26.1562 27.1595C26.1562 28.4241 25.1302 29.449 23.8656 29.449C22.6021 29.449 21.5762 28.4241 21.5762 27.1595C21.5762 25.895 22.6021 24.87 23.8656 24.87C25.1302 24.87 26.1562 25.895 26.1562 27.1595Z" fill="#CC9D2F"/>
<path d="M13.1781 13.4221C13.1781 14.6867 12.1531 15.7126 10.8886 15.7126C9.62404 15.7126 8.59912 14.6867 8.59912 13.4221C8.59912 12.1576 9.62404 11.1327 10.8886 11.1327C12.1531 11.1327 13.1781 12.1576 13.1781 13.4221Z" fill="#CC9D2F"/>
<path d="M13.1781 58.5594C13.1781 59.824 12.1531 60.8489 10.8886 60.8489C9.62404 60.8489 8.59912 59.824 8.59912 58.5594C8.59912 57.2949 9.62404 56.2699 10.8886 56.2699C12.1531 56.2699 13.1781 57.2949 13.1781 58.5594Z" fill="#CC9D2F"/>
<path d="M26.1562 45.4764C26.1562 46.7409 25.1302 47.7659 23.8656 47.7659C22.6021 47.7659 21.5762 46.7409 21.5762 45.4764C21.5762 44.2118 22.6021 43.1869 23.8656 43.1869C25.1302 43.1869 26.1562 44.2118 26.1562 45.4764Z" fill="#CC9D2F"/>
</svg>
