<svg width="16" height="16" viewBox="0 0 16 16" fill="none" xmlns="http://www.w3.org/2000/svg">
<g clip-path="url(#clip0_105_1592)">
<path d="M4.05517 8.66675C3.9588 8.0934 3.98858 7.50593 4.14242 6.94526C4.29627 6.38459 4.57049 5.8642 4.94598 5.42032C5.32147 4.97645 5.78921 4.61976 6.31662 4.37511C6.84404 4.13046 7.41844 4.00372 7.99984 4.00372C8.58123 4.00372 9.15564 4.13046 9.68305 4.37511C10.2105 4.61976 10.6782 4.97645 11.0537 5.42032C11.4292 5.8642 11.7034 6.38459 11.8573 6.94526C12.0111 7.50593 12.0409 8.0934 11.9445 8.66675H4.05517ZM1.33317 10.0001H7.99984V11.3334H1.33317V10.0001ZM9.33317 10.0001H14.6665V11.3334H9.33317V10.0001ZM10.6665 12.6667H13.3332V14.0001H10.6665V12.6667ZM2.6665 12.6667H9.33317V14.0001H2.6665V12.6667ZM7.33317 0.666748H8.6665V2.66675H7.33317V0.666748ZM2.34317 3.28608L3.28584 2.34341L4.69984 3.75741L3.75717 4.70008L2.34317 3.28675V3.28608ZM12.7132 2.34341L13.6558 3.28608L12.2418 4.70008L11.2992 3.75741L12.7132 2.34341V2.34341ZM15.3332 7.33341V8.66675H13.3332V7.33341H15.3332ZM2.6665 7.33341V8.66675H0.666504V7.33341H2.6665Z" fill="#393939"/>
</g>
<defs>
<clipPath id="clip0_105_1592">
<rect width="16" height="16" fill="white"/>
</clipPath>
</defs>
</svg>
