<svg width="16" height="17" viewBox="0 0 16 17" fill="none" xmlns="http://www.w3.org/2000/svg">
<path d="M6.06 6.50004C6.21673 6.05449 6.5261 5.67878 6.9333 5.43946C7.3405 5.20015 7.81926 5.11267 8.28478 5.19252C8.7503 5.27236 9.17254 5.51439 9.47671 5.87573C9.78089 6.23706 9.94737 6.69439 9.94666 7.16671C9.94666 8.50004 7.94666 9.16671 7.94666 9.16671M8 11.8334H8.00666M14.6667 8.50004C14.6667 12.1819 11.6819 15.1667 8 15.1667C4.3181 15.1667 1.33333 12.1819 1.33333 8.50004C1.33333 4.81814 4.3181 1.83337 8 1.83337C11.6819 1.83337 14.6667 4.81814 14.6667 8.50004Z" stroke="#98A2B3" stroke-width="1.33333" stroke-linecap="round" stroke-linejoin="round"/>
</svg>
