<svg width="16" height="17" viewBox="0 0 16 17" fill="none" xmlns="http://www.w3.org/2000/svg">
<path d="M6.06001 6.50004C6.21675 6.05449 6.52611 5.67878 6.93331 5.43946C7.34052 5.20015 7.81927 5.11267 8.28479 5.19252C8.75032 5.27236 9.17255 5.51439 9.47673 5.87573C9.7809 6.23706 9.94738 6.69439 9.94668 7.16671C9.94668 8.50004 7.94668 9.16671 7.94668 9.16671M8.00001 11.8334H8.00668M14.6667 8.50004C14.6667 12.1819 11.6819 15.1667 8.00001 15.1667C4.31811 15.1667 1.33334 12.1819 1.33334 8.50004C1.33334 4.81814 4.31811 1.83337 8.00001 1.83337C11.6819 1.83337 14.6667 4.81814 14.6667 8.50004Z" stroke="#98A2B3" stroke-width="1.33333" stroke-linecap="round" stroke-linejoin="round"/>
</svg>
