<svg width="16" height="17" viewBox="0 0 16 17" fill="none" xmlns="http://www.w3.org/2000/svg">
<path d="M6.06016 6.49992C6.2169 6.05436 6.52626 5.67866 6.93347 5.43934C7.34067 5.20002 7.81943 5.11254 8.28495 5.19239C8.75047 5.27224 9.17271 5.51427 9.47688 5.8756C9.78106 6.23694 9.94753 6.69427 9.94683 7.16659C9.94683 8.49992 7.94683 9.16659 7.94683 9.16659M8.00016 11.8333H8.00683M14.6668 8.49992C14.6668 12.1818 11.6821 15.1666 8.00016 15.1666C4.31826 15.1666 1.3335 12.1818 1.3335 8.49992C1.3335 4.81802 4.31826 1.83325 8.00016 1.83325C11.6821 1.83325 14.6668 4.81802 14.6668 8.49992Z" stroke="#98A2B3" stroke-width="1.33333" stroke-linecap="round" stroke-linejoin="round"/>
</svg>
