<svg width="16" height="17" viewBox="0 0 16 17" fill="none" xmlns="http://www.w3.org/2000/svg">
<g clip-path="url(#clip0_468_3091)">
<path d="M12.6667 7.83301H3.33333C2.59695 7.83301 2 8.42996 2 9.16634V13.833C2 14.5694 2.59695 15.1663 3.33333 15.1663H12.6667C13.403 15.1663 14 14.5694 14 13.833V9.16634C14 8.42996 13.403 7.83301 12.6667 7.83301Z" stroke="#667085" stroke-width="2" stroke-linecap="round" stroke-linejoin="round"/>
<path d="M4.66602 7.83301V5.16634C4.66602 4.28229 5.01721 3.43444 5.64233 2.80932C6.26745 2.1842 7.11529 1.83301 7.99935 1.83301C8.8834 1.83301 9.73125 2.1842 10.3564 2.80932C10.9815 3.43444 11.3327 4.28229 11.3327 5.16634V7.83301" stroke="#667085" stroke-width="2" stroke-linecap="round" stroke-linejoin="round"/>
</g>
<defs>
<clipPath id="clip0_468_3091">
<rect width="16" height="16" fill="white" transform="translate(0 0.5)"/>
</clipPath>
</defs>
</svg>
