<svg width="26" height="26" viewBox="0 0 26 26" fill="none" xmlns="http://www.w3.org/2000/svg">
<g filter="url(#filter0_d_105_1571)">
<circle cx="13" cy="12" r="12" fill="#C23785"/>
</g>
<g clip-path="url(#clip0_105_1571)">
<path d="M13.0002 5.33325C14.8115 5.33325 15.0375 5.33992 15.7482 5.37325C16.4582 5.40659 16.9415 5.51792 17.3668 5.68325C17.8068 5.85259 18.1775 6.08192 18.5482 6.45192C18.8872 6.78518 19.1495 7.18831 19.3168 7.63325C19.4815 8.05792 19.5935 8.54192 19.6268 9.25192C19.6582 9.96259 19.6668 10.1886 19.6668 11.9999C19.6668 13.8113 19.6602 14.0373 19.6268 14.7479C19.5935 15.4579 19.4815 15.9413 19.3168 16.3666C19.1499 16.8118 18.8876 17.215 18.5482 17.5479C18.2148 17.8868 17.8117 18.1491 17.3668 18.3166C16.9422 18.4813 16.4582 18.5933 15.7482 18.6266C15.0375 18.6579 14.8115 18.6666 13.0002 18.6666C11.1888 18.6666 10.9628 18.6599 10.2522 18.6266C9.54216 18.5933 9.05883 18.4813 8.6335 18.3166C8.18838 18.1496 7.78518 17.8872 7.45216 17.5479C7.1131 17.2147 6.85078 16.8116 6.6835 16.3666C6.51816 15.9419 6.40683 15.4579 6.3735 14.7479C6.34216 14.0373 6.3335 13.8113 6.3335 11.9999C6.3335 10.1886 6.34016 9.96259 6.3735 9.25192C6.40683 8.54125 6.51816 8.05859 6.6835 7.63325C6.85032 7.18804 7.1127 6.7848 7.45216 6.45192C7.78528 6.11274 8.18845 5.8504 8.6335 5.68325C9.05883 5.51792 9.5415 5.40659 10.2522 5.37325C10.9628 5.34192 11.1888 5.33325 13.0002 5.33325ZM13.0002 8.66659C12.1161 8.66659 11.2683 9.01777 10.6431 9.6429C10.018 10.268 9.66683 11.1159 9.66683 11.9999C9.66683 12.884 10.018 13.7318 10.6431 14.3569C11.2683 14.9821 12.1161 15.3333 13.0002 15.3333C13.8842 15.3333 14.7321 14.9821 15.3572 14.3569C15.9823 13.7318 16.3335 12.884 16.3335 11.9999C16.3335 11.1159 15.9823 10.268 15.3572 9.6429C14.7321 9.01777 13.8842 8.66659 13.0002 8.66659V8.66659ZM17.3335 8.49992C17.3335 8.2789 17.2457 8.06694 17.0894 7.91066C16.9331 7.75438 16.7212 7.66659 16.5002 7.66659C16.2791 7.66659 16.0672 7.75438 15.9109 7.91066C15.7546 8.06694 15.6668 8.2789 15.6668 8.49992C15.6668 8.72093 15.7546 8.93289 15.9109 9.08917C16.0672 9.24545 16.2791 9.33325 16.5002 9.33325C16.7212 9.33325 16.9331 9.24545 17.0894 9.08917C17.2457 8.93289 17.3335 8.72093 17.3335 8.49992ZM13.0002 9.99992C13.5306 9.99992 14.0393 10.2106 14.4144 10.5857C14.7894 10.9608 15.0002 11.4695 15.0002 11.9999C15.0002 12.5304 14.7894 13.0391 14.4144 13.4141C14.0393 13.7892 13.5306 13.9999 13.0002 13.9999C12.4697 13.9999 11.961 13.7892 11.5859 13.4141C11.2109 13.0391 11.0002 12.5304 11.0002 11.9999C11.0002 11.4695 11.2109 10.9608 11.5859 10.5857C11.961 10.2106 12.4697 9.99992 13.0002 9.99992V9.99992Z" fill="white"/>
</g>
<defs>
<filter id="filter0_d_105_1571" x="0" y="0" width="26" height="26" filterUnits="userSpaceOnUse" color-interpolation-filters="sRGB">
<feFlood flood-opacity="0" result="BackgroundImageFix"/>
<feColorMatrix in="SourceAlpha" type="matrix" values="0 0 0 0 0 0 0 0 0 0 0 0 0 0 0 0 0 0 127 0" result="hardAlpha"/>
<feOffset dy="1"/>
<feGaussianBlur stdDeviation="0.5"/>
<feColorMatrix type="matrix" values="0 0 0 0 0 0 0 0 0 0 0 0 0 0 0 0 0 0 0.1 0"/>
<feBlend mode="normal" in2="BackgroundImageFix" result="effect1_dropShadow_105_1571"/>
<feBlend mode="normal" in="SourceGraphic" in2="effect1_dropShadow_105_1571" result="shape"/>
</filter>
<clipPath id="clip0_105_1571">
<rect width="16" height="16" fill="white" transform="translate(5 4)"/>
</clipPath>
</defs>
</svg>
