<svg width="30" height="30" viewBox="0 0 30 30" fill="none" xmlns="http://www.w3.org/2000/svg">
<path d="M27.7242 12.9773L27.5918 12.4154H15.3785V17.5846H22.6758C21.9182 21.1822 18.4025 23.076 15.5309 23.076C13.4414 23.076 11.2389 22.1971 9.78105 20.7844C9.01191 20.0271 8.39968 19.1256 7.97941 18.1314C7.55914 17.1373 7.33908 16.07 7.33184 14.9906C7.33184 12.8133 8.31035 10.6354 9.73418 9.20273C11.158 7.77012 13.3084 6.96855 15.4465 6.96855C17.8951 6.96855 19.65 8.26875 20.3062 8.86172L23.9795 5.20781C22.902 4.26094 19.9418 1.875 15.3281 1.875C11.7686 1.875 8.35547 3.23848 5.86055 5.7252C3.39844 8.17383 2.12402 11.7146 2.12402 15C2.12402 18.2854 3.32988 21.6492 5.71582 24.1172C8.26523 26.7492 11.8758 28.125 15.5936 28.125C18.9762 28.125 22.1824 26.7996 24.4676 24.3949C26.7141 22.0277 27.876 18.7523 27.876 15.3188C27.876 13.8732 27.7307 13.0148 27.7242 12.9773Z" fill="black"/>
</svg>
