<svg width="51" height="45" viewBox="0 0 51 45" fill="none" xmlns="http://www.w3.org/2000/svg">
<rect width="51" height="45" rx="22.5" fill="#FBF7F7"/>
<path d="M25.1979 38.0296L8.87321 23.5805L8.84365 23.5543L8.81212 23.5306C6.44228 21.7454 4.98438 19.1285 4.98438 16.2473C4.98438 11.047 9.80526 6.625 16.023 6.625C19.4292 6.625 22.451 7.9689 24.464 10.0492L25.1281 10.7356L25.2092 10.6641L25.3519 10.79L26.0159 10.0952C28.0286 7.98877 31.0696 6.625 34.501 6.625C40.7187 6.625 45.5396 11.047 45.5396 16.2473C45.5396 19.2387 43.9673 21.947 41.4343 23.7329C39.9924 24.7496 35.7336 28.5109 31.9064 31.9486C29.9766 33.682 28.1334 35.3542 26.7729 36.5929C26.1239 37.1838 25.5846 37.6762 25.1979 38.0296Z" stroke="#333333" stroke-width="2"/>
</svg>
