<svg width="95" height="146" viewBox="0 0 95 146" fill="none" xmlns="http://www.w3.org/2000/svg">
<path d="M8.36694 25.7879L14.1658 23.3859L16.5678 29.1848L22.3667 31.5868L19.9647 37.3856L22.3667 43.1845L16.5678 45.5856L14.1658 51.3845L8.36694 48.9834M59.3684 77.9983L65.8049 71.5618L72.2415 77.9983H59.3684Z" stroke="white" stroke-width="0.545105" stroke-miterlimit="10"/>
<path d="M8.36694 22.0772C16.8212 22.0772 23.6748 28.9308 23.6748 37.3851C23.6748 45.8393 16.8212 52.6929 8.36694 52.6929" stroke="#4A8B40" stroke-width="0.545105" stroke-miterlimit="10"/>
<path d="M34.6514 36.9314C34.6514 37.3409 34.3194 37.6729 33.9099 37.6729C33.5004 37.6729 33.1685 37.3409 33.1685 36.9314C33.1685 36.5219 33.5004 36.1899 33.9099 36.1899C34.3194 36.1899 34.6514 36.5219 34.6514 36.9314Z" fill="#CC9D2F"/>
<path d="M33.355 39.1897C33.355 39.5992 33.0231 39.9312 32.6135 39.9312C32.204 39.9312 31.8721 39.5992 31.8721 39.1897C31.8721 38.7802 32.204 38.4482 32.6135 38.4482C33.0231 38.4482 33.355 38.7802 33.355 39.1897Z" fill="#CC9D2F"/>
<path d="M35.948 39.1897C35.948 39.5992 35.6161 39.9312 35.2065 39.9312C34.797 39.9312 34.4651 39.5992 34.4651 39.1897C34.4651 38.7802 34.797 38.4482 35.2065 38.4482C35.6161 38.4482 35.948 38.7802 35.948 39.1897Z" fill="#CC9D2F"/>
<path d="M33.3564 43.7947C33.3564 44.2042 33.0245 44.5361 32.615 44.5361C32.2055 44.5361 31.8735 44.2042 31.8735 43.7947C31.8735 43.3851 32.2055 43.0532 32.615 43.0532C33.0245 43.0532 33.3564 43.3851 33.3564 43.7947Z" fill="#CC9D2F"/>
<path d="M30.6879 43.7947C30.6879 44.2042 30.356 44.5361 29.9465 44.5361C29.537 44.5361 29.2041 44.2042 29.2041 43.7947C29.2041 43.3851 29.537 43.0532 29.9465 43.0532C30.356 43.0532 30.6879 43.3851 30.6879 43.7947Z" fill="#CC9D2F"/>
<path d="M38.6936 43.7947C38.6936 44.2042 38.3617 44.5361 37.9521 44.5361C37.5426 44.5361 37.2107 44.2042 37.2107 43.7947C37.2107 43.3851 37.5426 43.0532 37.9521 43.0532C38.3617 43.0532 38.6936 43.3851 38.6936 43.7947Z" fill="#CC9D2F"/>
<path d="M36.0249 43.7947C36.0249 44.2042 35.693 44.5361 35.2834 44.5361C34.8739 44.5361 34.542 44.2042 34.542 43.7947C34.542 43.3851 34.8739 43.0532 35.2834 43.0532C35.693 43.0532 36.0249 43.3851 36.0249 43.7947Z" fill="#CC9D2F"/>
<path d="M32.1255 41.4639C32.1255 41.8734 31.7936 42.2053 31.384 42.2053C30.9745 42.2053 30.6426 41.8734 30.6426 41.4639C30.6426 41.0543 30.9745 40.7224 31.384 40.7224C31.7936 40.7224 32.1255 41.0543 32.1255 41.4639Z" fill="#CC9D2F"/>
<path d="M34.6689 41.4639C34.6689 41.8734 34.337 42.2053 33.9274 42.2053C33.5179 42.2053 33.1851 41.8734 33.1851 41.4639C33.1851 41.0543 33.5179 40.7224 33.9274 40.7224C34.337 40.7224 34.6689 41.0543 34.6689 41.4639Z" fill="#CC9D2F"/>
<path d="M37.2122 41.4639C37.2122 41.8734 36.8802 42.2053 36.4707 42.2053C36.0612 42.2053 35.7292 41.8734 35.7292 41.4639C35.7292 41.0543 36.0612 40.7224 36.4707 40.7224C36.8802 40.7224 37.2122 41.0543 37.2122 41.4639Z" fill="#CC9D2F"/>
<path d="M59.9014 36.9314C59.9014 37.3409 59.5694 37.6729 59.1599 37.6729C58.7504 37.6729 58.4185 37.3409 58.4185 36.9314C58.4185 36.5219 58.7504 36.1899 59.1599 36.1899C59.5694 36.1899 59.9014 36.5219 59.9014 36.9314Z" fill="#CC9D2F"/>
<path d="M58.6047 39.1897C58.6047 39.5992 58.2728 39.9312 57.8633 39.9312C57.4538 39.9312 57.1218 39.5992 57.1218 39.1897C57.1218 38.7802 57.4538 38.4482 57.8633 38.4482C58.2728 38.4482 58.6047 38.7802 58.6047 39.1897Z" fill="#CC9D2F"/>
<path d="M61.198 39.1897C61.198 39.5992 60.8661 39.9312 60.4565 39.9312C60.047 39.9312 59.7151 39.5992 59.7151 39.1897C59.7151 38.7802 60.047 38.4482 60.4565 38.4482C60.8661 38.4482 61.198 38.7802 61.198 39.1897Z" fill="#CC9D2F"/>
<path d="M58.6064 43.7947C58.6064 44.2042 58.2745 44.5361 57.8649 44.5361C57.4554 44.5361 57.1226 44.2042 57.1226 43.7947C57.1226 43.3851 57.4554 43.0532 57.8649 43.0532C58.2745 43.0532 58.6064 43.3851 58.6064 43.7947Z" fill="#CC9D2F"/>
<path d="M55.9377 43.7947C55.9377 44.2042 55.6058 44.5361 55.1962 44.5361C54.7867 44.5361 54.4539 44.2042 54.4539 43.7947C54.4539 43.3851 54.7867 43.0532 55.1962 43.0532C55.6058 43.0532 55.9377 43.3851 55.9377 43.7947Z" fill="#CC9D2F"/>
<path d="M63.9436 43.7947C63.9436 44.2042 63.6117 44.5361 63.2021 44.5361C62.7926 44.5361 62.4607 44.2042 62.4607 43.7947C62.4607 43.3851 62.7926 43.0532 63.2021 43.0532C63.6117 43.0532 63.9436 43.3851 63.9436 43.7947Z" fill="#CC9D2F"/>
<path d="M61.2751 43.7947C61.2751 44.2042 60.9432 44.5361 60.5336 44.5361C60.1241 44.5361 59.7913 44.2042 59.7913 43.7947C59.7913 43.3851 60.1241 43.0532 60.5336 43.0532C60.9432 43.0532 61.2751 43.3851 61.2751 43.7947Z" fill="#CC9D2F"/>
<path d="M57.3755 41.4639C57.3755 41.8734 57.0436 42.2053 56.634 42.2053C56.2245 42.2053 55.8926 41.8734 55.8926 41.4639C55.8926 41.0543 56.2245 40.7224 56.634 40.7224C57.0436 40.7224 57.3755 41.0543 57.3755 41.4639Z" fill="#CC9D2F"/>
<path d="M59.9189 41.4639C59.9189 41.8734 59.587 42.2053 59.1774 42.2053C58.7679 42.2053 58.4351 41.8734 58.4351 41.4639C58.4351 41.0543 58.7679 40.7224 59.1774 40.7224C59.587 40.7224 59.9189 41.0543 59.9189 41.4639Z" fill="#CC9D2F"/>
<path d="M62.4624 41.4639C62.4624 41.8734 62.1304 42.2053 61.7209 42.2053C61.3114 42.2053 60.9785 41.8734 60.9785 41.4639C60.9785 41.0543 61.3114 40.7224 61.7209 40.7224C62.1304 40.7224 62.4624 41.0543 62.4624 41.4639Z" fill="#CC9D2F"/>
<path d="M49.0613 9.83624C49.0613 14.4963 46.6004 18.2737 46.6004 18.2737C46.6004 18.2737 44.1395 14.4963 44.1395 9.83624C44.1395 5.1762 46.6004 1.3988 46.6004 1.3988C46.6004 1.3988 49.0613 5.1762 49.0613 9.83624ZM55.1379 3.21551C59.1733 5.54553 61.2144 9.56603 61.2144 9.56603C61.2144 9.56603 56.7124 9.80819 52.6769 7.47817C48.6415 5.14815 46.6004 1.12859 46.6004 1.12859C46.6004 1.12859 51.1024 0.88549 55.1379 3.21551ZM38.0629 3.21551C42.0984 0.88549 46.6004 1.12859 46.6004 1.12859C46.6004 1.12859 44.5593 5.14815 40.5238 7.47817C36.4884 9.80819 31.9863 9.56603 31.9863 9.56603C31.9863 9.56603 34.0274 5.54553 38.0629 3.21551Z" stroke="white" stroke-width="0.545105" stroke-miterlimit="10"/>
<path d="M73.9598 1.12828L46.6008 28.4873L19.1885 1.07498" stroke="#4A8B40" stroke-width="0.545105" stroke-miterlimit="10"/>
<path d="M46.6893 77.9983L53.1258 71.5618L59.5624 77.9983H46.6893ZM20.9431 77.9983L27.3797 71.5618L33.8162 77.9983H20.9431ZM33.8162 77.9983L40.2528 71.5618L46.6893 77.9983H33.8162ZM72.241 77.9983L78.6775 71.5618L85.1141 77.9983H85.0056H8.19349H8.07007L14.5066 71.5618L20.9431 77.9983H72.241ZM74.1998 36.7554L67.5015 30.0562L74.1998 23.3588V50.1512L67.5015 43.4529L74.1998 36.7554ZM8.36646 64.3604L18.4766 61.2833L8.36646 58.2062V64.3604ZM8.36646 70.5136L18.4766 67.4375L8.36646 64.3604V70.5136Z" stroke="white" stroke-width="0.545105" stroke-miterlimit="10"/>
<path d="M24.4763 1.07571V3.71989M52.631 11.6917L53.6455 15.4775L56.4168 12.7062L52.631 11.6917ZM40.7294 11.6917L36.9445 12.7062L39.7159 15.4775L40.7294 11.6917ZM35.111 1.1103L31.717 1.10376V3.07006L35.111 1.1103ZM58.3084 1.1103L61.7024 3.07006V1.10376L58.3084 1.1103ZM46.6003 20.0207V25.1707V20.0207ZM44.3731 20.0207V22.6649V20.0207ZM48.8265 20.0207V22.6649V20.0207ZM66.9356 1.07571V4.81945V1.07571ZM64.7094 1.07571V7.0195V1.07571ZM69.1628 1.07571V3.71989V1.07571ZM26.7035 1.07571V4.81945V1.07571ZM28.9297 1.07571V7.0195V1.07571Z" stroke="#CC9D2F" stroke-width="0.545105" stroke-miterlimit="10"/>
<path d="M85.0061 68.3242C82.4404 68.3242 80.3535 66.2364 80.3535 63.6707C80.3535 61.1051 82.4404 59.0182 85.0061 59.0182V68.3242Z" stroke="#4A8B40" stroke-width="0.545105" stroke-miterlimit="10"/>
<path d="M85.0061 54.0713C82.4404 54.0713 80.3535 51.9834 80.3535 49.4178C80.3535 46.8522 82.4404 44.7652 85.0061 44.7652V54.0713Z" stroke="#CC9D2F" stroke-width="0.545105" stroke-miterlimit="10"/>
<path d="M85.0061 39.8357C82.4404 39.8357 80.3535 37.7478 80.3535 35.1822C80.3535 32.6166 82.4404 30.5296 85.0061 30.5296V39.8357Z" stroke="#4A8B40" stroke-width="0.545105" stroke-miterlimit="10"/>
<path d="M85.0061 25.6003C82.4404 25.6003 80.3535 23.5125 80.3535 20.9468C80.3535 18.3812 82.4404 16.2943 85.0061 16.2943V25.6003Z" stroke="#CC9D2F" stroke-width="0.545105" stroke-miterlimit="10"/>
<path d="M51.7631 63.3674L46.6001 68.5305L41.437 63.3674M41.5118 51.7548L46.6001 46.6674L51.7631 51.8305" stroke="#4A8B40" stroke-width="0.545105" stroke-miterlimit="10"/>
<path d="M8.3664 37.3855L19.1862 26.5657M72.2409 73.9636L70.5149 72.2376L72.2409 70.5116L73.9669 72.2376L72.2409 73.9636ZM20.9431 73.9636L19.2171 72.2376L20.9431 70.5116L22.6691 72.2376L20.9431 73.9636ZM33.8162 73.9636L32.0902 72.2376L33.8162 70.5116L35.5422 72.2376L33.8162 73.9636ZM59.3678 73.9636L57.6418 72.2376L59.3678 70.5116L61.0938 72.2376L59.3678 73.9636ZM8.3664 37.3855H23.6742H8.3664ZM8.3103 37.3294L19.1862 48.2053L8.3103 37.3294Z" stroke="#CC9D2F" stroke-width="0.545105" stroke-miterlimit="10"/>
<path d="M18.2203 33.6105C18.2203 34.1172 17.8089 34.5286 17.3021 34.5286C16.7953 34.5286 16.3839 34.1172 16.3839 33.6105C16.3839 33.1037 16.7953 32.6923 17.3021 32.6923C17.8089 32.6923 18.2203 33.1037 18.2203 33.6105ZM13.017 28.1024C13.017 28.6092 12.6056 29.0206 12.0988 29.0206C11.5921 29.0206 11.1807 28.6092 11.1807 28.1024C11.1807 27.5956 11.5921 27.1842 12.0988 27.1842C12.6056 27.1842 13.017 27.5956 13.017 28.1024ZM13.017 46.2003C13.017 46.707 12.6056 47.1184 12.0988 47.1184C11.5921 47.1184 11.1807 46.707 11.1807 46.2003C11.1807 45.6935 11.5921 45.2821 12.0988 45.2821C12.6056 45.2821 13.017 45.6935 13.017 46.2003ZM18.2203 40.9549C18.2203 41.4617 17.8089 41.8721 17.3021 41.8721C16.7953 41.8721 16.3839 41.4617 16.3839 40.9549C16.3839 40.4472 16.7953 40.0367 17.3021 40.0367C17.8089 40.0367 18.2203 40.4472 18.2203 40.9549ZM50.1421 57.5988C50.1421 63.7137 55.0995 68.6702 61.2134 68.6702C67.3283 68.6702 72.2848 63.7137 72.2848 57.5988C72.2848 51.4849 67.3283 46.5284 61.2134 46.5284C55.0995 46.5284 50.1421 51.4849 50.1421 57.5988ZM20.9149 57.5988C20.9149 63.7137 25.8714 68.6702 31.9863 68.6702C38.1002 68.6702 43.0567 63.7137 43.0567 57.5988C43.0567 51.4849 38.1002 46.5284 31.9863 46.5284C25.8714 46.5284 20.9149 51.4849 20.9149 57.5988Z" stroke="white" stroke-width="0.545105" stroke-miterlimit="10"/>
<path d="M51.449 57.5991C51.449 62.9922 55.821 67.3633 61.2132 67.3633C66.6063 67.3633 70.9783 62.9922 70.9783 57.5991C70.9783 52.206 66.6063 47.8339 61.2132 47.8339C55.821 47.8339 51.449 52.206 51.449 57.5991Z" stroke="#CC9D2F" stroke-width="0.545105" stroke-miterlimit="10"/>
<path d="M61.2133 63.9817C57.694 63.9817 54.8301 61.1187 54.8301 57.5984C54.8301 54.0791 57.694 51.2161 61.2133 51.2161C64.7327 51.2161 67.5966 54.0791 67.5966 57.5984C67.5966 61.1187 64.7327 63.9817 61.2133 63.9817Z" stroke="white" stroke-width="0.545105" stroke-miterlimit="10"/>
<path d="M22.2212 57.5991C22.2212 62.9922 26.5933 67.3633 31.9854 67.3633C37.3785 67.3633 41.7505 62.9922 41.7505 57.5991C41.7505 52.206 37.3785 47.8339 31.9854 47.8339C26.5933 47.8339 22.2212 52.206 22.2212 57.5991Z" stroke="#CC9D2F" stroke-width="0.545105" stroke-miterlimit="10"/>
<path d="M31.9858 63.9817C28.4664 63.9817 25.6025 61.1187 25.6025 57.5984C25.6025 54.0791 28.4664 51.2161 31.9858 51.2161C35.5051 51.2161 38.369 54.0791 38.369 57.5984C38.369 61.1187 35.5051 63.9817 31.9858 63.9817Z" stroke="white" stroke-width="0.545105" stroke-miterlimit="10"/>
<path d="M8.3103 1.07543L46.5995 39.3646L84.8896 1.07543V6.69011L46.5995 44.9802L8.3103 6.69011V1.07543Z" stroke="#4A8B40" stroke-width="0.545105" stroke-miterlimit="10"/>
<path d="M49.6598 39.5628C49.6598 39.8695 49.4111 40.1191 49.1035 40.1191C48.7968 40.1191 48.5481 39.8695 48.5481 39.5628C48.5481 39.2561 48.7968 39.0065 49.1035 39.0065C49.4111 39.0065 49.6598 39.2561 49.6598 39.5628Z" fill="white"/>
<path d="M49.6598 39.5628C49.6598 39.8695 49.4111 40.1191 49.1035 40.1191C48.7968 40.1191 48.5481 39.8695 48.5481 39.5628C48.5481 39.2561 48.7968 39.0065 49.1035 39.0065C49.4111 39.0065 49.6598 39.2561 49.6598 39.5628Z" stroke="white" stroke-width="0.19074" stroke-miterlimit="10"/>
<path d="M52.1908 37.0338C52.1908 37.3404 51.9421 37.5901 51.6345 37.5901C51.3278 37.5901 51.0791 37.3404 51.0791 37.0338C51.0791 36.7271 51.3278 36.4774 51.6345 36.4774C51.9421 36.4774 52.1908 36.7271 52.1908 37.0338Z" fill="white"/>
<path d="M52.1908 37.0338C52.1908 37.3404 51.9421 37.5901 51.6345 37.5901C51.3278 37.5901 51.0791 37.3404 51.0791 37.0338C51.0791 36.7271 51.3278 36.4774 51.6345 36.4774C51.9421 36.4774 52.1908 36.7271 52.1908 37.0338Z" stroke="white" stroke-width="0.19074" stroke-miterlimit="10"/>
<path d="M54.7221 34.5047C54.7221 34.8114 54.4734 35.061 54.1657 35.061C53.8591 35.061 53.6104 34.8114 53.6104 34.5047C53.6104 34.198 53.8591 33.9484 54.1657 33.9484C54.4734 33.9484 54.7221 34.198 54.7221 34.5047Z" fill="white"/>
<path d="M54.7221 34.5047C54.7221 34.8114 54.4734 35.061 54.1657 35.061C53.8591 35.061 53.6104 34.8114 53.6104 34.5047C53.6104 34.198 53.8591 33.9484 54.1657 33.9484C54.4734 33.9484 54.7221 34.198 54.7221 34.5047Z" stroke="white" stroke-width="0.19074" stroke-miterlimit="10"/>
<path d="M57.2521 31.9754C57.2521 32.2821 57.0034 32.5317 56.6958 32.5317C56.3891 32.5317 56.1404 32.2821 56.1404 31.9754C56.1404 31.6687 56.3891 31.4191 56.6958 31.4191C57.0034 31.4191 57.2521 31.6687 57.2521 31.9754Z" fill="white"/>
<path d="M57.2521 31.9754C57.2521 32.2821 57.0034 32.5317 56.6958 32.5317C56.3891 32.5317 56.1404 32.2821 56.1404 31.9754C56.1404 31.6687 56.3891 31.4191 56.6958 31.4191C57.0034 31.4191 57.2521 31.6687 57.2521 31.9754Z" stroke="white" stroke-width="0.19074" stroke-miterlimit="10"/>
<path d="M59.7831 29.4461C59.7831 29.7528 59.5344 30.0024 59.2268 30.0024C58.9201 30.0024 58.6714 29.7528 58.6714 29.4461C58.6714 29.1394 58.9201 28.8898 59.2268 28.8898C59.5344 28.8898 59.7831 29.1394 59.7831 29.4461Z" fill="white"/>
<path d="M59.7831 29.4461C59.7831 29.7528 59.5344 30.0024 59.2268 30.0024C58.9201 30.0024 58.6714 29.7528 58.6714 29.4461C58.6714 29.1394 58.9201 28.8898 59.2268 28.8898C59.5344 28.8898 59.7831 29.1394 59.7831 29.4461Z" stroke="white" stroke-width="0.19074" stroke-miterlimit="10"/>
<path d="M62.3134 26.9171C62.3134 27.2237 62.0647 27.4734 61.7571 27.4734C61.4504 27.4734 61.2017 27.2237 61.2017 26.9171C61.2017 26.6104 61.4504 26.3607 61.7571 26.3607C62.0647 26.3607 62.3134 26.6104 62.3134 26.9171Z" fill="white"/>
<path d="M62.3134 26.9171C62.3134 27.2237 62.0647 27.4734 61.7571 27.4734C61.4504 27.4734 61.2017 27.2237 61.2017 26.9171C61.2017 26.6104 61.4504 26.3607 61.7571 26.3607C62.0647 26.3607 62.3134 26.6104 62.3134 26.9171Z" stroke="white" stroke-width="0.19074" stroke-miterlimit="10"/>
<path d="M64.8444 24.3875C64.8444 24.6942 64.5957 24.9438 64.2881 24.9438C63.9814 24.9438 63.7327 24.6942 63.7327 24.3875C63.7327 24.0808 63.9814 23.8312 64.2881 23.8312C64.5957 23.8312 64.8444 24.0808 64.8444 24.3875Z" fill="white"/>
<path d="M64.8444 24.3875C64.8444 24.6942 64.5957 24.9438 64.2881 24.9438C63.9814 24.9438 63.7327 24.6942 63.7327 24.3875C63.7327 24.0808 63.9814 23.8312 64.2881 23.8312C64.5957 23.8312 64.8444 24.0808 64.8444 24.3875Z" stroke="white" stroke-width="0.19074" stroke-miterlimit="10"/>
<path d="M67.3747 21.8587C67.3747 22.1654 67.1259 22.415 66.8183 22.415C66.5116 22.415 66.2629 22.1654 66.2629 21.8587C66.2629 21.552 66.5116 21.3024 66.8183 21.3024C67.1259 21.3024 67.3747 21.552 67.3747 21.8587Z" fill="white"/>
<path d="M67.3747 21.8587C67.3747 22.1654 67.1259 22.415 66.8183 22.415C66.5116 22.415 66.2629 22.1654 66.2629 21.8587C66.2629 21.552 66.5116 21.3024 66.8183 21.3024C67.1259 21.3024 67.3747 21.552 67.3747 21.8587Z" stroke="white" stroke-width="0.19074" stroke-miterlimit="10"/>
<path d="M69.9057 19.3294C69.9057 19.6361 69.657 19.8857 69.3493 19.8857C69.0427 19.8857 68.7939 19.6361 68.7939 19.3294C68.7939 19.0227 69.0427 18.7731 69.3493 18.7731C69.657 18.7731 69.9057 19.0227 69.9057 19.3294Z" fill="white"/>
<path d="M69.9057 19.3294C69.9057 19.6361 69.657 19.8857 69.3493 19.8857C69.0427 19.8857 68.7939 19.6361 68.7939 19.3294C68.7939 19.0227 69.0427 18.7731 69.3493 18.7731C69.657 18.7731 69.9057 19.0227 69.9057 19.3294Z" stroke="white" stroke-width="0.19074" stroke-miterlimit="10"/>
<path d="M72.4367 16.8001C72.4367 17.1068 72.188 17.3564 71.8803 17.3564C71.5737 17.3564 71.325 17.1068 71.325 16.8001C71.325 16.4934 71.5737 16.2438 71.8803 16.2438C72.188 16.2438 72.4367 16.4934 72.4367 16.8001Z" fill="white"/>
<path d="M72.4367 16.8001C72.4367 17.1068 72.188 17.3564 71.8803 17.3564C71.5737 17.3564 71.325 17.1068 71.325 16.8001C71.325 16.4934 71.5737 16.2438 71.8803 16.2438C72.188 16.2438 72.4367 16.4934 72.4367 16.8001Z" stroke="white" stroke-width="0.19074" stroke-miterlimit="10"/>
<path d="M74.9669 14.2708C74.9669 14.5775 74.7182 14.8271 74.4106 14.8271C74.1039 14.8271 73.8552 14.5775 73.8552 14.2708C73.8552 13.9641 74.1039 13.7145 74.4106 13.7145C74.7182 13.7145 74.9669 13.9641 74.9669 14.2708Z" fill="white"/>
<path d="M74.9669 14.2708C74.9669 14.5775 74.7182 14.8271 74.4106 14.8271C74.1039 14.8271 73.8552 14.5775 73.8552 14.2708C73.8552 13.9641 74.1039 13.7145 74.4106 13.7145C74.7182 13.7145 74.9669 13.9641 74.9669 14.2708Z" stroke="white" stroke-width="0.19074" stroke-miterlimit="10"/>
<path d="M77.4979 11.7418C77.4979 12.0485 77.2492 12.2981 76.9416 12.2981C76.6349 12.2981 76.3862 12.0485 76.3862 11.7418C76.3862 11.4351 76.6349 11.1854 76.9416 11.1854C77.2492 11.1854 77.4979 11.4351 77.4979 11.7418Z" fill="white"/>
<path d="M77.4979 11.7418C77.4979 12.0485 77.2492 12.2981 76.9416 12.2981C76.6349 12.2981 76.3862 12.0485 76.3862 11.7418C76.3862 11.4351 76.6349 11.1854 76.9416 11.1854C77.2492 11.1854 77.4979 11.4351 77.4979 11.7418Z" stroke="white" stroke-width="0.19074" stroke-miterlimit="10"/>
<path d="M80.0282 9.21272C80.0282 9.5194 79.7795 9.76904 79.4719 9.76904C79.1652 9.76904 78.9165 9.5194 78.9165 9.21272C78.9165 8.90604 79.1652 8.65639 79.4719 8.65639C79.7795 8.65639 80.0282 8.90604 80.0282 9.21272Z" fill="white"/>
<path d="M80.0282 9.21272C80.0282 9.5194 79.7795 9.76904 79.4719 9.76904C79.1652 9.76904 78.9165 9.5194 78.9165 9.21272C78.9165 8.90604 79.1652 8.65639 79.4719 8.65639C79.7795 8.65639 80.0282 8.90604 80.0282 9.21272Z" stroke="white" stroke-width="0.19074" stroke-miterlimit="10"/>
<path d="M82.5592 6.68342C82.5592 6.9901 82.3105 7.23975 82.0029 7.23975C81.6962 7.23975 81.4475 6.9901 81.4475 6.68342C81.4475 6.37674 81.6962 6.1271 82.0029 6.1271C82.3105 6.1271 82.5592 6.37674 82.5592 6.68342Z" fill="white"/>
<path d="M82.5592 6.68342C82.5592 6.9901 82.3105 7.23975 82.0029 7.23975C81.6962 7.23975 81.4475 6.9901 81.4475 6.68342C81.4475 6.37674 81.6962 6.1271 82.0029 6.1271C82.3105 6.1271 82.5592 6.37674 82.5592 6.68342Z" stroke="white" stroke-width="0.19074" stroke-miterlimit="10"/>
<path d="M47.1295 42.0921C47.1295 42.3988 46.8808 42.6484 46.5732 42.6484C46.2665 42.6484 46.0178 42.3988 46.0178 42.0921C46.0178 41.7854 46.2665 41.5358 46.5732 41.5358C46.8808 41.5358 47.1295 41.7854 47.1295 42.0921Z" fill="white"/>
<path d="M47.1295 42.0921C47.1295 42.3988 46.8808 42.6484 46.5732 42.6484C46.2665 42.6484 46.0178 42.3988 46.0178 42.0921C46.0178 41.7854 46.2665 41.5358 46.5732 41.5358C46.8808 41.5358 47.1295 41.7854 47.1295 42.0921Z" stroke="white" stroke-width="0.19074" stroke-miterlimit="10"/>
<path d="M43.4868 39.5628C43.4868 39.8695 43.7355 40.1191 44.0431 40.1191C44.3498 40.1191 44.5985 39.8695 44.5985 39.5628C44.5985 39.2561 44.3498 39.0065 44.0431 39.0065C43.7355 39.0065 43.4868 39.2561 43.4868 39.5628Z" fill="white"/>
<path d="M43.4868 39.5628C43.4868 39.8695 43.7355 40.1191 44.0431 40.1191C44.3498 40.1191 44.5985 39.8695 44.5985 39.5628C44.5985 39.2561 44.3498 39.0065 44.0431 39.0065C43.7355 39.0065 43.4868 39.2561 43.4868 39.5628Z" stroke="white" stroke-width="0.19074" stroke-miterlimit="10"/>
<path d="M40.9558 37.0338C40.9558 37.3404 41.2045 37.5901 41.5121 37.5901C41.8188 37.5901 42.0675 37.3404 42.0675 37.0338C42.0675 36.7271 41.8188 36.4774 41.5121 36.4774C41.2045 36.4774 40.9558 36.7271 40.9558 37.0338Z" fill="white"/>
<path d="M40.9558 37.0338C40.9558 37.3404 41.2045 37.5901 41.5121 37.5901C41.8188 37.5901 42.0675 37.3404 42.0675 37.0338C42.0675 36.7271 41.8188 36.4774 41.5121 36.4774C41.2045 36.4774 40.9558 36.7271 40.9558 37.0338Z" stroke="white" stroke-width="0.19074" stroke-miterlimit="10"/>
<path d="M38.4255 34.5047C38.4255 34.8114 38.6742 35.061 38.9819 35.061C39.2885 35.061 39.5373 34.8114 39.5373 34.5047C39.5373 34.198 39.2885 33.9484 38.9819 33.9484C38.6742 33.9484 38.4255 34.198 38.4255 34.5047Z" fill="white"/>
<path d="M38.4255 34.5047C38.4255 34.8114 38.6742 35.061 38.9819 35.061C39.2885 35.061 39.5373 34.8114 39.5373 34.5047C39.5373 34.198 39.2885 33.9484 38.9819 33.9484C38.6742 33.9484 38.4255 34.198 38.4255 34.5047Z" stroke="white" stroke-width="0.19074" stroke-miterlimit="10"/>
<path d="M35.8945 31.9754C35.8945 32.2821 36.1432 32.5317 36.4509 32.5317C36.7575 32.5317 37.0062 32.2821 37.0062 31.9754C37.0062 31.6687 36.7575 31.4191 36.4509 31.4191C36.1432 31.4191 35.8945 31.6687 35.8945 31.9754Z" fill="white"/>
<path d="M35.8945 31.9754C35.8945 32.2821 36.1432 32.5317 36.4509 32.5317C36.7575 32.5317 37.0062 32.2821 37.0062 31.9754C37.0062 31.6687 36.7575 31.4191 36.4509 31.4191C36.1432 31.4191 35.8945 31.6687 35.8945 31.9754Z" stroke="white" stroke-width="0.19074" stroke-miterlimit="10"/>
<path d="M33.3635 29.4461C33.3635 29.7528 33.6122 30.0024 33.9199 30.0024C34.2265 30.0024 34.4752 29.7528 34.4752 29.4461C34.4752 29.1394 34.2265 28.8898 33.9199 28.8898C33.6122 28.8898 33.3635 29.1394 33.3635 29.4461Z" fill="white"/>
<path d="M33.3635 29.4461C33.3635 29.7528 33.6122 30.0024 33.9199 30.0024C34.2265 30.0024 34.4752 29.7528 34.4752 29.4461C34.4752 29.1394 34.2265 28.8898 33.9199 28.8898C33.6122 28.8898 33.3635 29.1394 33.3635 29.4461Z" stroke="white" stroke-width="0.19074" stroke-miterlimit="10"/>
<path d="M30.8333 26.9171C30.8333 27.2237 31.082 27.4734 31.3896 27.4734C31.6963 27.4734 31.945 27.2237 31.945 26.9171C31.945 26.6104 31.6963 26.3607 31.3896 26.3607C31.082 26.3607 30.8333 26.6104 30.8333 26.9171Z" fill="white"/>
<path d="M30.8333 26.9171C30.8333 27.2237 31.082 27.4734 31.3896 27.4734C31.6963 27.4734 31.945 27.2237 31.945 26.9171C31.945 26.6104 31.6963 26.3607 31.3896 26.3607C31.082 26.3607 30.8333 26.6104 30.8333 26.9171Z" stroke="white" stroke-width="0.19074" stroke-miterlimit="10"/>
<path d="M28.3022 24.3875C28.3022 24.6942 28.551 24.9438 28.8586 24.9438C29.1653 24.9438 29.414 24.6942 29.414 24.3875C29.414 24.0808 29.1653 23.8312 28.8586 23.8312C28.551 23.8312 28.3022 24.0808 28.3022 24.3875Z" fill="white"/>
<path d="M28.3022 24.3875C28.3022 24.6942 28.551 24.9438 28.8586 24.9438C29.1653 24.9438 29.414 24.6942 29.414 24.3875C29.414 24.0808 29.1653 23.8312 28.8586 23.8312C28.551 23.8312 28.3022 24.0808 28.3022 24.3875Z" stroke="white" stroke-width="0.19074" stroke-miterlimit="10"/>
<path d="M25.772 21.8587C25.772 22.1654 26.0207 22.415 26.3283 22.415C26.635 22.415 26.8837 22.1654 26.8837 21.8587C26.8837 21.552 26.635 21.3024 26.3283 21.3024C26.0207 21.3024 25.772 21.552 25.772 21.8587Z" fill="white"/>
<path d="M25.772 21.8587C25.772 22.1654 26.0207 22.415 26.3283 22.415C26.635 22.415 26.8837 22.1654 26.8837 21.8587C26.8837 21.552 26.635 21.3024 26.3283 21.3024C26.0207 21.3024 25.772 21.552 25.772 21.8587Z" stroke="white" stroke-width="0.19074" stroke-miterlimit="10"/>
<path d="M23.241 19.3294C23.241 19.6361 23.4897 19.8857 23.7973 19.8857C24.104 19.8857 24.3527 19.6361 24.3527 19.3294C24.3527 19.0227 24.104 18.7731 23.7973 18.7731C23.4897 18.7731 23.241 19.0227 23.241 19.3294Z" fill="white"/>
<path d="M23.241 19.3294C23.241 19.6361 23.4897 19.8857 23.7973 19.8857C24.104 19.8857 24.3527 19.6361 24.3527 19.3294C24.3527 19.0227 24.104 18.7731 23.7973 18.7731C23.4897 18.7731 23.241 19.0227 23.241 19.3294Z" stroke="white" stroke-width="0.19074" stroke-miterlimit="10"/>
<path d="M20.7109 16.8001C20.7109 17.1068 20.9596 17.3564 21.2673 17.3564C21.5739 17.3564 21.8227 17.1068 21.8227 16.8001C21.8227 16.4934 21.5739 16.2438 21.2673 16.2438C20.9596 16.2438 20.7109 16.4934 20.7109 16.8001Z" fill="white"/>
<path d="M20.7109 16.8001C20.7109 17.1068 20.9596 17.3564 21.2673 17.3564C21.5739 17.3564 21.8227 17.1068 21.8227 16.8001C21.8227 16.4934 21.5739 16.2438 21.2673 16.2438C20.9596 16.2438 20.7109 16.4934 20.7109 16.8001Z" stroke="white" stroke-width="0.19074" stroke-miterlimit="10"/>
<path d="M18.1797 14.2708C18.1797 14.5775 18.4284 14.8271 18.736 14.8271C19.0427 14.8271 19.2914 14.5775 19.2914 14.2708C19.2914 13.9641 19.0427 13.7145 18.736 13.7145C18.4284 13.7145 18.1797 13.9641 18.1797 14.2708Z" fill="white"/>
<path d="M18.1797 14.2708C18.1797 14.5775 18.4284 14.8271 18.736 14.8271C19.0427 14.8271 19.2914 14.5775 19.2914 14.2708C19.2914 13.9641 19.0427 13.7145 18.736 13.7145C18.4284 13.7145 18.1797 13.9641 18.1797 14.2708Z" stroke="white" stroke-width="0.19074" stroke-miterlimit="10"/>
<path d="M15.6487 11.7418C15.6487 12.0485 15.8974 12.2981 16.205 12.2981C16.5117 12.2981 16.7604 12.0485 16.7604 11.7418C16.7604 11.4351 16.5117 11.1854 16.205 11.1854C15.8974 11.1854 15.6487 11.4351 15.6487 11.7418Z" fill="white"/>
<path d="M15.6487 11.7418C15.6487 12.0485 15.8974 12.2981 16.205 12.2981C16.5117 12.2981 16.7604 12.0485 16.7604 11.7418C16.7604 11.4351 16.5117 11.1854 16.205 11.1854C15.8974 11.1854 15.6487 11.4351 15.6487 11.7418Z" stroke="white" stroke-width="0.19074" stroke-miterlimit="10"/>
<path d="M13.1187 9.21272C13.1187 9.5194 13.3674 9.76904 13.675 9.76904C13.9817 9.76904 14.2304 9.5194 14.2304 9.21272C14.2304 8.90604 13.9817 8.65639 13.675 8.65639C13.3674 8.65639 13.1187 8.90604 13.1187 9.21272Z" fill="white"/>
<path d="M13.1187 9.21272C13.1187 9.5194 13.3674 9.76904 13.675 9.76904C13.9817 9.76904 14.2304 9.5194 14.2304 9.21272C14.2304 8.90604 13.9817 8.65639 13.675 8.65639C13.3674 8.65639 13.1187 8.90604 13.1187 9.21272Z" stroke="white" stroke-width="0.19074" stroke-miterlimit="10"/>
<path d="M10.5874 6.68342C10.5874 6.9901 10.8361 7.23975 11.1437 7.23975C11.4504 7.23975 11.6991 6.9901 11.6991 6.68342C11.6991 6.37674 11.4504 6.1271 11.1437 6.1271C10.8361 6.1271 10.5874 6.37674 10.5874 6.68342Z" fill="white"/>
<path d="M10.5874 6.68342C10.5874 6.9901 10.8361 7.23975 11.1437 7.23975C11.4504 7.23975 11.6991 6.9901 11.6991 6.68342C11.6991 6.37674 11.4504 6.1271 11.1437 6.1271C10.8361 6.1271 10.5874 6.37674 10.5874 6.68342Z" stroke="white" stroke-width="0.19074" stroke-miterlimit="10"/>
<path d="M85.006 42.3013V56.5367C81.0744 56.5367 77.8879 53.3502 77.8879 49.4185C77.8879 45.4878 81.0744 42.3013 85.006 42.3013ZM85.006 42.3013C81.0744 42.3013 77.8879 39.1139 77.8879 35.1831C77.8879 31.2524 81.0744 28.065 85.006 28.065M85.006 42.3013V28.065M85.006 28.065C81.0744 28.065 77.8879 24.8785 77.8879 20.9478C77.8879 17.017 81.0744 13.8296 85.006 13.8296V28.065ZM77.023 1.10425L46.6 31.4908L16.1807 1.10425H77.023ZM77.8879 63.6716C77.8879 67.6024 81.0744 70.7898 85.006 70.7898V56.5544C81.0744 56.5544 77.8879 59.7409 77.8879 63.6716ZM8.36597 19.0488V55.7223C18.493 55.7223 26.7032 47.513 26.7032 37.3851C26.7032 27.2581 18.493 19.0488 8.36597 19.0488Z" stroke="white" stroke-width="0.545105" stroke-miterlimit="10"/>
<path d="M23.2895 92.5346C24.1151 98.138 26.4526 111.34 28.2404 117.253L24.4246 117.907C23.9768 113.644 21.6739 101.611 20.5734 96.6598C18.3387 102.677 15.314 112.75 14.2135 117.116L11.7722 117.735C10.8101 113.368 7.3721 101.37 5.61804 96.6261C4.07155 103.295 2.48953 113.644 1.93975 117.288L0.254883 117.529C1.35538 114.366 3.89951 101.405 5.2749 93.2564L7.88729 92.5346C8.91859 97.1759 11.9097 106.699 14.1443 113.265C16.1733 107.352 18.8202 99.2039 20.4705 93.2218L23.2895 92.5346Z" fill="white"/>
<path d="M47.1237 92.4656C49.0488 98.5159 54.2746 111.546 57.0253 117.288L52.9684 117.597C52.2465 115.396 50.6645 110.721 49.0152 106.08C46.299 105.977 43.4454 106.045 40.7975 106.08C38.9761 110.721 37.3941 115.087 36.8443 117.253L35.022 117.597C36.5694 114.916 41.898 101.336 44.7862 93.2566L47.1237 92.4656ZM44.889 95.6633C42.4141 101.989 41.7605 103.673 41.1079 105.324C43.5482 105.427 46.299 105.496 48.774 105.392C47.3649 101.439 45.8857 97.7259 44.889 95.6633Z" fill="white"/>
<path d="M68.1686 92.8096C67.8938 102.195 67.8246 108.177 68.2023 117.323H64.8335C65.1084 108.143 65.0401 102.161 64.8681 92.8096H68.1686Z" fill="white"/>
<path d="M77.957 92.8095C81.4296 92.8095 89.7838 92.9123 93.6678 92.7749C90.7805 97.0731 83.1135 111.753 80.8789 116.738C84.9358 116.841 91.3303 116.669 94.4251 115.947L93.909 117.391H76.3413C79.1257 113.093 87.1022 98.0352 89.2331 93.4967C85.7268 93.3256 79.9167 93.4284 77.3726 94.6318L77.957 92.8095Z" fill="white"/>
<path d="M46.591 143.197C45.9468 143.197 45.613 143.531 45.613 144.175C45.613 144.819 45.9468 145.13 46.591 145.13C47.2353 145.13 47.5691 144.819 47.5691 144.197C47.5691 143.641 47.1025 143.197 46.591 143.197Z" fill="white"/>
<path d="M49.5012 143.197C48.857 143.197 48.5242 143.531 48.5242 144.175C48.5242 144.819 48.857 145.13 49.5012 145.13C50.1679 145.13 50.5008 144.819 50.5008 144.197C50.5008 143.641 50.0566 143.197 49.5012 143.197Z" fill="white"/>
<path d="M58.9883 139.176C57.5661 139.176 56.6779 137.643 56.6779 135.443C56.6779 134.175 56.9219 133.2 57.4109 132.466C57.9673 131.621 58.8106 131.199 59.899 131.199C60.3207 131.199 60.8097 131.289 61.366 131.443L61.5885 133.133C61.7222 134.133 61.7877 134.932 61.7877 135.533C61.7877 137.953 60.8545 139.176 58.9883 139.176ZM35.8611 139.176V136.787C35.877 135.355 35.9284 133.855 36.0116 130.858L36.0135 130.802H34.4324V130.858C34.4342 130.965 34.4342 131.069 34.4361 131.172C34.452 132.213 34.466 133.077 34.4773 133.81V133.832C34.4857 134.593 34.4969 135.208 34.5034 135.73V140.154C34.5034 140.975 34.3043 141.731 33.8826 142.464C33.3038 143.42 32.6923 144.059 31.5601 144.479L33.4001 144.409C34.9279 143.485 35.7423 141.982 35.8592 139.886L35.8611 139.176ZM50.4573 139.336C50.4732 137.905 50.5247 133.855 50.6079 130.858L50.6097 130.802H49.0287V130.858C49.0305 130.965 49.0305 131.069 49.0333 131.172C49.0483 132.213 49.0623 133.077 49.0735 133.81C49.0848 134.69 49.096 135.378 49.1025 135.95V139.608L50.4573 139.336ZM35.5516 140.242H58.4768C61.4557 140.242 62.9433 138.976 62.9433 136.421V133L63.12 130.822C62.2991 130.533 61.3884 130.378 60.388 130.378C58.8331 130.378 57.5886 130.89 56.6555 131.887C55.7448 132.888 55.2782 134.22 55.2782 135.887C55.2782 137.265 55.612 138.355 56.2562 139.176H52.4788H35.5516" fill="white"/>
<path d="M36.0773 126.975C36.0773 127.518 35.637 127.958 35.0937 127.958C34.5505 127.958 34.1101 127.518 34.1101 126.975C34.1101 126.431 34.5505 125.991 35.0937 125.991C35.637 125.991 36.0773 126.431 36.0773 126.975Z" fill="white"/>
</svg>
