<svg width="177" height="57" viewBox="0 0 177 57" fill="none" xmlns="http://www.w3.org/2000/svg">
<path d="M0.0810547 56.4043H176.195V-2.28882e-05H0.0810547V56.4043Z" fill="black"/>
<path d="M38.4169 18.5692C39.0321 22.7488 40.7759 32.594 42.1092 37.0044L39.263 37.4917C38.9298 34.3123 37.2116 25.338 36.3911 21.6457C34.7247 26.1328 32.4686 33.6453 31.6482 36.9015L29.8276 37.3632C29.1095 34.107 26.5459 25.1589 25.2382 21.6201C24.0839 26.5945 22.9047 34.3123 22.4942 37.03L21.2383 37.2097C22.0587 34.8507 23.956 25.1845 24.9817 19.1077L26.9302 18.5692C27.6995 22.0307 29.9299 29.1326 31.5964 34.0303C33.1094 29.6199 35.084 23.5436 36.3144 19.0821L38.4169 18.5692Z" fill="white"/>
<path d="M56.1922 18.5175C57.6278 23.0302 61.5253 32.7475 63.5761 37.0294L60.5508 37.2603C60.0124 35.6194 58.8332 32.1324 57.6028 28.6709C55.577 28.5942 53.4489 28.6453 51.4748 28.6709C50.1153 32.1324 48.9361 35.3885 48.5256 37.0038L47.1667 37.2603C48.321 35.26 52.2953 25.1327 54.449 19.107L56.1922 18.5175ZM54.5257 20.902C52.6796 25.6194 52.1923 26.8759 51.705 28.1069C53.5256 28.1837 55.577 28.2348 57.4232 28.1581C56.3719 25.2095 55.2694 22.4406 54.5257 20.902Z" fill="white"/>
<path d="M71.8875 18.7741C71.6823 25.7737 71.6311 30.2352 71.9131 37.0552H69.4006C69.6053 30.2097 69.5541 25.7481 69.4262 18.7741H71.8875Z" fill="white"/>
<path d="M79.1871 18.7737C81.7769 18.7737 88.0073 18.8504 90.9041 18.7481C88.7503 21.9531 83.0328 32.9014 81.3664 36.6193C84.3917 36.6961 89.1609 36.5675 91.4687 36.0291L91.0837 37.106H77.9817C80.0587 33.9009 86.007 22.6712 87.5967 19.2865C84.9813 19.158 80.6483 19.2354 78.751 20.1326L79.1871 18.7737Z" fill="white"/>
<path d="M133.3 38.2452C132.452 38.2452 132.014 38.6838 132.014 39.531C132.014 40.3783 132.452 40.7876 133.3 40.7876C134.147 40.7876 134.586 40.3783 134.586 39.5604C134.586 38.8298 133.972 38.2452 133.3 38.2452Z" fill="white"/>
<path d="M137.128 38.2452C136.281 38.2452 135.843 38.6838 135.843 39.531C135.843 40.3783 136.281 40.7876 137.128 40.7876C138.005 40.7876 138.442 40.3783 138.442 39.5604C138.442 38.8298 137.858 38.2452 137.128 38.2452Z" fill="white"/>
<path d="M149.604 32.9561C147.734 32.9561 146.566 30.9409 146.566 28.0472C146.566 26.3802 146.887 25.0968 147.53 24.1322C148.262 23.0204 149.371 22.4658 150.802 22.4658C151.357 22.4658 152 22.5837 152.731 22.7871L153.023 25.0088C153.2 26.3246 153.286 27.3747 153.286 28.1652C153.286 31.3483 152.059 32.9561 149.604 32.9561ZM119.189 32.9561V29.8141C119.209 27.9324 119.277 25.9584 119.386 22.0172L119.389 21.9436H117.309V22.0172C117.312 22.1588 117.312 22.2942 117.315 22.4302C117.336 23.7991 117.354 24.9346 117.368 25.8998V25.9291C117.38 26.9292 117.395 27.7372 117.404 28.4247V34.2426C117.404 35.322 117.141 36.3165 116.586 37.2811C115.825 38.5376 115.022 39.3786 113.532 39.9302L115.952 39.8385C117.961 38.6231 119.032 36.6466 119.186 33.8914L119.189 32.9561ZM138.385 33.167C138.406 31.2847 138.473 25.9584 138.582 22.0172L138.585 21.9436H136.506V22.0172C136.509 22.1588 136.509 22.2942 136.511 22.4302C136.532 23.7991 136.55 24.9346 136.565 25.8998C136.579 27.0559 136.594 27.9618 136.603 28.7142V33.5239L138.385 33.167ZM118.781 34.3574H148.932C152.849 34.3574 154.805 32.6935 154.805 29.3337V24.8341L155.038 21.9698C153.958 21.5892 152.761 21.3858 151.445 21.3858C149.401 21.3858 147.764 22.0584 146.536 23.3711C145.339 24.6869 144.725 26.4394 144.725 28.6312C144.725 30.4424 145.164 31.8762 146.011 32.9561H141.043H118.781" fill="white"/>
<path d="M119.472 16.9107C119.472 17.6251 118.893 18.2041 118.179 18.2041C117.465 18.2041 116.886 17.6251 116.886 16.9107C116.886 16.1964 117.465 15.6174 118.179 15.6174C118.893 15.6174 119.472 16.1964 119.472 16.9107Z" fill="white"/>
</svg>
