<svg width="51" height="51" viewBox="0 0 51 51" fill="none" xmlns="http://www.w3.org/2000/svg">
<rect width="51" height="51" fill="#A20505"/>
<path d="M8.5 44.625V40.375H42.5V44.625H8.5ZM17 36.125C14.6625 36.125 12.6615 35.2927 10.9969 33.6281C9.33229 31.9635 8.5 29.9625 8.5 27.625V6.375H42.5C43.6688 6.375 44.6696 6.7915 45.5026 7.6245C46.3356 8.4575 46.7514 9.45767 46.75 10.625V17C46.75 18.1687 46.3335 19.1696 45.5005 20.0026C44.6675 20.8356 43.6673 21.2514 42.5 21.25H38.25V27.625C38.25 29.9625 37.4177 31.9635 35.7531 33.6281C34.0885 35.2927 32.0875 36.125 29.75 36.125H17ZM38.25 17H42.5V10.625H38.25V17Z" fill="#FFFBFB"/>
</svg>
