<svg width="24" height="24" viewBox="0 0 24 24" fill="none" xmlns="http://www.w3.org/2000/svg">
<path d="M13 2.99961L14 3.05961C16.8 1.78961 19.23 1.63961 20.5 2.91961C21.5 3.92961 21.58 5.66961 20.92 7.71961C21.6309 9.03406 22.0021 10.5053 22 11.9996L21.95 12.9996H9.08003C9.45003 15.2796 11.06 16.9996 13 16.9996C14.31 16.9996 15.47 16.2096 16.2 14.9996H21.5C20.25 18.4996 16.92 20.9996 13 20.9996C11.72 20.9996 10.5 20.7296 9.41003 20.2496C6.50003 21.6796 3.89003 21.8996 2.57003 20.5596C1.00003 18.9596 1.68003 15.5696 4.00003 11.9996C4.93003 10.5396 6.14003 9.05961 7.57003 7.64961L8.38003 6.87961C7.21003 7.56961 5.71003 8.61961 4.19003 10.1696C4.6107 8.14397 5.7164 6.3251 7.32102 5.01919C8.92563 3.71328 10.9312 3.00006 13 2.99961ZM13 6.99961C11.21 6.99961 9.69003 8.46961 9.18003 10.4996H16.82C16.31 8.46961 14.79 6.99961 13 6.99961ZM20.06 4.05961C19.4 3.38961 18.22 3.34961 16.74 3.80961C18.22 4.49961 19.5 5.55961 20.41 6.88961C20.73 5.64961 20.64 4.64961 20.06 4.05961ZM3.89003 19.9996C4.72003 20.8396 6.40003 20.6896 8.44003 19.7596C6.57583 18.6599 5.16738 16.9286 4.47003 14.8796C3.27003 17.1496 3.00003 19.0696 3.89003 19.9996Z" fill="black"/>
</svg>
