<svg width="24" height="24" viewBox="0 0 24 24" fill="none" xmlns="http://www.w3.org/2000/svg">
<g clip-path="url(#clip0_467_6093)">
<g clip-path="url(#clip1_467_6093)">
<path d="M18.6115 20H4.91803M11.7647 20V14M14.6991 20V16M8.83044 20V16M18.6115 24V13.33C18.9747 13.1947 19.3081 12.9873 19.5927 12.7199C19.8773 12.4525 20.1075 12.1302 20.2699 11.7716C20.4324 11.4129 20.5239 11.025 20.5394 10.6301C20.5548 10.2352 20.4938 9.84111 20.3598 9.47039C20.2258 9.09967 20.0216 8.75965 19.7587 8.46986C19.4959 8.18007 19.1796 7.94621 18.8282 7.78171C18.4767 7.61721 18.0969 7.52531 17.7106 7.51129C17.3242 7.49727 16.939 7.5614 16.577 7.7C16.2151 5.874 14.1709 4 11.7647 4C9.35861 4 7.31438 5.874 6.95248 7.7C6.22225 7.42417 5.41475 7.45623 4.70763 7.7891C4.0005 8.12198 3.45168 8.72842 3.1819 9.475C2.91211 10.2216 2.94346 11.0472 3.26905 11.7701C3.59464 12.4931 4.18779 13.0542 4.91803 13.33V24H18.6115Z" stroke="black" stroke-width="2"/>
</g>
</g>
<defs>
<clipPath id="clip0_467_6093">
<rect width="24" height="24" fill="white"/>
</clipPath>
<clipPath id="clip1_467_6093">
<rect width="24" height="24" fill="white"/>
</clipPath>
</defs>
</svg>
