<svg width="129" height="22" viewBox="0 0 129 22" fill="none" xmlns="http://www.w3.org/2000/svg">
<path d="M9.7969 3.00157C10.0921 2.07176 11.4079 2.07176 11.7031 3.00157L12.9421 6.90346C13.074 7.31872 13.4595 7.60081 13.8952 7.60081H17.9527C18.9158 7.60081 19.3222 8.8287 18.5493 9.40333L15.2275 11.8729C14.885 12.1275 14.7418 12.5714 14.871 12.9781L16.1304 16.9444C16.4243 17.8697 15.3599 18.6288 14.5807 18.0495L11.3466 15.6452C10.9925 15.3819 10.5075 15.3819 10.1534 15.6452L6.9193 18.0495C6.14013 18.6288 5.07573 17.8697 5.36957 16.9444L6.62901 12.9781C6.75815 12.5714 6.61499 12.1275 6.27253 11.8729L2.95071 9.40333C2.17777 8.82869 2.58419 7.60081 3.54734 7.60081H7.60481C8.0405 7.60081 8.42605 7.31872 8.55791 6.90346L9.7969 3.00157Z" fill="#FDD836"/>
<path d="M36.6719 3.00157C36.9671 2.07176 38.2829 2.07176 38.5781 3.00157L39.8171 6.90346C39.949 7.31872 40.3345 7.60081 40.7702 7.60081H44.8277C45.7908 7.60081 46.1972 8.8287 45.4243 9.40333L42.1025 11.8729C41.76 12.1275 41.6168 12.5714 41.746 12.9781L43.0054 16.9444C43.2993 17.8697 42.2349 18.6288 41.4557 18.0495L38.2216 15.6452C37.8675 15.3819 37.3825 15.3819 37.0284 15.6452L33.7943 18.0495C33.0151 18.6288 31.9507 17.8697 32.2446 16.9444L33.504 12.9781C33.6332 12.5714 33.49 12.1275 33.1475 11.8729L29.8257 9.40333C29.0528 8.82869 29.4592 7.60081 30.4223 7.60081H34.4798C34.9155 7.60081 35.301 7.31872 35.4329 6.90346L36.6719 3.00157Z" fill="#FDD836"/>
<path d="M63.5469 3.00157C63.8421 2.07176 65.1579 2.07176 65.4531 3.00157L66.6921 6.90346C66.824 7.31872 67.2095 7.60081 67.6452 7.60081H71.7027C72.6658 7.60081 73.0722 8.8287 72.2993 9.40333L68.9775 11.8729C68.635 12.1275 68.4918 12.5714 68.621 12.9781L69.8804 16.9444C70.1743 17.8697 69.1099 18.6288 68.3307 18.0495L65.0966 15.6452C64.7425 15.3819 64.2575 15.3819 63.9034 15.6452L60.6693 18.0495C59.8901 18.6288 58.8257 17.8697 59.1196 16.9444L60.379 12.9781C60.5082 12.5714 60.365 12.1275 60.0225 11.8729L56.7007 9.40333C55.9278 8.82869 56.3342 7.60081 57.2973 7.60081H61.3548C61.7905 7.60081 62.176 7.31872 62.3079 6.90346L63.5469 3.00157Z" fill="#FDD836"/>
<path d="M90.4219 3.00157C90.7171 2.07176 92.0329 2.07176 92.3281 3.00157L93.5671 6.90346C93.699 7.31872 94.0845 7.60081 94.5202 7.60081H98.5777C99.5408 7.60081 99.9472 8.8287 99.1743 9.40333L95.8525 11.8729C95.51 12.1275 95.3668 12.5714 95.496 12.9781L96.7554 16.9444C97.0493 17.8697 95.9849 18.6288 95.2057 18.0495L91.9716 15.6452C91.6175 15.3819 91.1325 15.3819 90.7784 15.6452L87.5443 18.0495C86.7651 18.6288 85.7007 17.8697 85.9946 16.9444L87.254 12.9781C87.3832 12.5714 87.24 12.1275 86.8975 11.8729L83.5757 9.40333C82.8028 8.82869 83.2092 7.60081 84.1723 7.60081H88.2298C88.6655 7.60081 89.051 7.31872 89.1829 6.90346L90.4219 3.00157Z" fill="#FDD836"/>
<path d="M117.297 3.00157C117.592 2.07176 118.908 2.07176 119.203 3.00157L120.442 6.90346C120.574 7.31872 120.959 7.60081 121.395 7.60081H125.453C126.416 7.60081 126.822 8.8287 126.049 9.40333L122.727 11.8729C122.385 12.1275 122.242 12.5714 122.371 12.9781L123.63 16.9444C123.924 17.8697 122.86 18.6288 122.081 18.0495L118.847 15.6452C118.492 15.3819 118.008 15.3819 117.653 15.6452L114.419 18.0495C113.64 18.6288 112.576 17.8697 112.87 16.9444L114.129 12.9781C114.258 12.5714 114.115 12.1275 113.773 11.8729L110.451 9.40333C109.678 8.82869 110.084 7.60081 111.047 7.60081H115.105C115.541 7.60081 115.926 7.31872 116.058 6.90346L117.297 3.00157Z" fill="#FDD836"/>
</svg>
