<svg width="122" height="14" viewBox="0 0 122 14" fill="none" xmlns="http://www.w3.org/2000/svg">
<g clip-path="url(#clip0_173_306)">
<path d="M13.6961 6.88686C13.6961 3.15724 10.6726 0.133789 6.94301 0.133789C3.21339 0.133789 0.189941 3.15724 0.189941 6.88686C0.189941 10.2575 2.65943 13.0513 5.88785 13.5579V8.83892H4.1732V6.88686H5.88785V5.39907C5.88785 3.70659 6.89606 2.77171 8.43858 2.77171C9.1772 2.77171 9.95024 2.9036 9.95024 2.9036V4.56549H9.09872C8.25986 4.56549 7.99818 5.08609 7.99818 5.62066V6.88686H9.8711L9.5717 8.83892H7.99818V13.5579C11.2266 13.0513 13.6961 10.2575 13.6961 6.88686Z" fill="#243054"/>
</g>
<g clip-path="url(#clip1_173_306)">
<path d="M40.4552 12.3736C45.5506 12.3736 48.3383 8.15104 48.3383 4.4904C48.3383 4.3717 48.3357 4.25035 48.3304 4.13165C48.8727 3.73946 49.3407 3.25369 49.7124 2.69715C49.2074 2.92186 48.6711 3.06861 48.122 3.1324C48.7002 2.78584 49.1331 2.24141 49.3405 1.60004C48.7966 1.92238 48.2018 2.14976 47.5815 2.27244C47.1636 1.8284 46.6111 1.53439 46.0093 1.43587C45.4076 1.33735 44.7901 1.43981 44.2524 1.7274C43.7148 2.015 43.2868 2.47171 43.0347 3.02693C42.7826 3.58215 42.7204 4.20495 42.8578 4.79904C41.7565 4.74377 40.679 4.45768 39.6954 3.9593C38.7117 3.46092 37.8437 2.76138 37.1478 1.90603C36.794 2.51591 36.6858 3.23759 36.845 3.9244C37.0043 4.61121 37.4191 5.21162 38.0051 5.6036C37.5651 5.58964 37.1348 5.47119 36.7497 5.25804V5.29233C36.7493 5.93235 36.9706 6.55275 37.3759 7.04808C37.7812 7.54341 38.3455 7.88309 38.9729 8.00939C38.5654 8.12089 38.1377 8.13714 37.7228 8.05687C37.8999 8.60729 38.2444 9.0887 38.7082 9.43392C39.172 9.77913 39.732 9.97093 40.3101 9.98255C39.3287 10.7535 38.1164 11.1716 36.8684 11.1696C36.6471 11.1693 36.426 11.1557 36.2063 11.129C37.4741 11.9424 38.9489 12.3743 40.4552 12.3736Z" fill="#243054"/>
</g>
<g clip-path="url(#clip2_173_306)">
<path d="M78.9757 1.34987C80.7801 1.34987 80.9937 1.35778 81.7033 1.38944C82.3628 1.41846 82.7189 1.52925 82.9563 1.62158C83.2703 1.74292 83.4971 1.89064 83.7319 2.12542C83.9693 2.36283 84.1144 2.58705 84.2357 2.90097C84.3281 3.13838 84.4389 3.49713 84.4679 4.15398C84.4995 4.86621 84.5074 5.07989 84.5074 6.88158C84.5074 8.68592 84.4995 8.89959 84.4679 9.60919C84.4389 10.2687 84.3281 10.6248 84.2357 10.8622C84.1144 11.1761 83.9667 11.403 83.7319 11.6378C83.4945 11.8752 83.2703 12.0203 82.9563 12.1416C82.7189 12.2339 82.3602 12.3447 81.7033 12.3737C80.9911 12.4054 80.7774 12.4133 78.9757 12.4133C77.1714 12.4133 76.9577 12.4054 76.2481 12.3737C75.5886 12.3447 75.2325 12.2339 74.9951 12.1416C74.6812 12.0203 74.4543 11.8725 74.2196 11.6378C73.9821 11.4003 73.8371 11.1761 73.7157 10.8622C73.6234 10.6248 73.5126 10.266 73.4836 9.60919C73.4519 8.89696 73.444 8.68328 73.444 6.88158C73.444 5.07725 73.4519 4.86358 73.4836 4.15398C73.5126 3.4945 73.6234 3.13838 73.7157 2.90097C73.8371 2.58705 73.9848 2.36019 74.2196 2.12542C74.457 1.888 74.6812 1.74292 74.9951 1.62158C75.2325 1.52925 75.5913 1.41846 76.2481 1.38944C76.9577 1.35778 77.1714 1.34987 78.9757 1.34987ZM78.9757 0.133789C77.1424 0.133789 76.9129 0.141703 76.1927 0.173358C75.4752 0.205013 74.9819 0.321081 74.5546 0.48727C74.1088 0.661373 73.7315 0.890872 73.357 1.26809C72.9797 1.64268 72.7502 2.0199 72.5761 2.46307C72.4099 2.89305 72.2939 3.3837 72.2622 4.10122C72.2306 4.82401 72.2227 5.05351 72.2227 6.88686C72.2227 8.72021 72.2306 8.94971 72.2622 9.66986C72.2939 10.3874 72.4099 10.8807 72.5761 11.308C72.7502 11.7538 72.9797 12.131 73.357 12.5056C73.7315 12.8802 74.1088 13.1123 74.5519 13.2838C74.9819 13.45 75.4726 13.5661 76.1901 13.5977C76.9102 13.6294 77.1397 13.6373 78.9731 13.6373C80.8064 13.6373 81.0359 13.6294 81.7561 13.5977C82.4736 13.5661 82.9669 13.45 83.3942 13.2838C83.8374 13.1123 84.2146 12.8802 84.5892 12.5056C84.9638 12.131 85.1959 11.7538 85.3674 11.3107C85.5336 10.8807 85.6497 10.39 85.6813 9.6725C85.713 8.95235 85.7209 8.72285 85.7209 6.8895C85.7209 5.05615 85.713 4.82665 85.6813 4.10649C85.6497 3.38898 85.5336 2.89569 85.3674 2.46835C85.2012 2.0199 84.9717 1.64268 84.5945 1.26809C84.2199 0.89351 83.8427 0.661373 83.3995 0.489908C82.9695 0.323719 82.4789 0.207651 81.7614 0.175996C81.0386 0.141703 80.8091 0.133789 78.9757 0.133789Z" fill="#243054"/>
<path d="M78.9757 3.41797C77.0606 3.41797 75.5068 4.9717 75.5068 6.88683C75.5068 8.80196 77.0606 10.3557 78.9757 10.3557C80.8908 10.3557 82.4446 8.80196 82.4446 6.88683C82.4446 4.9717 80.8908 3.41797 78.9757 3.41797ZM78.9757 9.13698C77.7332 9.13698 76.7256 8.12929 76.7256 6.88683C76.7256 5.64437 77.7332 4.63669 78.9757 4.63669C80.2182 4.63669 81.2258 5.64437 81.2258 6.88683C81.2258 8.12929 80.2182 9.13698 78.9757 9.13698Z" fill="#243054"/>
<path d="M83.3917 3.28103C83.3917 3.72948 83.0276 4.09088 82.5818 4.09088C82.1334 4.09088 81.772 3.72684 81.772 3.28103C81.772 2.83259 82.136 2.47119 82.5818 2.47119C83.0276 2.47119 83.3917 2.83522 83.3917 3.28103Z" fill="#243054"/>
</g>
<g clip-path="url(#clip3_173_306)">
<path d="M120.745 0.133789H109.236C108.685 0.133789 108.239 0.569046 108.239 1.10718V12.6639C108.239 13.202 108.685 13.6399 109.236 13.6399H120.745C121.297 13.6399 121.745 13.202 121.745 12.6665V1.10718C121.745 0.569046 121.297 0.133789 120.745 0.133789ZM112.246 11.643H110.241V5.19595H112.246V11.643ZM111.244 4.31753C110.6 4.31753 110.08 3.79786 110.08 3.15684C110.08 2.51583 110.6 1.99616 111.244 1.99616C111.885 1.99616 112.404 2.51583 112.404 3.15684C112.404 3.79522 111.885 4.31753 111.244 4.31753ZM119.748 11.643H117.746V8.50918C117.746 7.76265 117.733 6.79981 116.704 6.79981C115.662 6.79981 115.504 7.61493 115.504 8.45642V11.643H113.504V5.19595H115.425V6.07702H115.451C115.718 5.57054 116.372 5.03504 117.345 5.03504C119.374 5.03504 119.748 6.36983 119.748 8.10558V11.643Z" fill="#243054"/>
</g>
<defs>
<clipPath id="clip0_173_306">
<rect width="13.5061" height="13.5061" fill="white" transform="translate(0.189941 0.133789)"/>
</clipPath>
<clipPath id="clip1_173_306">
<rect width="13.5061" height="13.5061" fill="white" transform="translate(36.2063 0.133789)"/>
</clipPath>
<clipPath id="clip2_173_306">
<rect width="13.5061" height="13.5061" fill="white" transform="translate(72.2227 0.133789)"/>
</clipPath>
<clipPath id="clip3_173_306">
<rect width="13.5061" height="13.5061" fill="white" transform="translate(108.239 0.133789)"/>
</clipPath>
</defs>
</svg>
