<svg width="14" height="16" viewBox="0 0 14 16" fill="none" xmlns="http://www.w3.org/2000/svg">
<g clip-path="url(#clip0_448_5582)">
<path d="M7.17652 2.14874C7.18159 2.13265 7.18782 2.12778 7.19112 2.12551C7.19643 2.12187 7.20579 2.11816 7.21823 2.11816C7.23066 2.11816 7.24003 2.12187 7.24534 2.12551C7.24864 2.12778 7.25486 2.13265 7.25995 2.14874L8.56788 6.28915C8.65412 6.56214 8.90733 6.74773 9.19363 6.74773H13.4467C13.4631 6.74773 13.4697 6.75203 13.473 6.75459C13.4782 6.75853 13.4845 6.76617 13.4882 6.77768C13.4921 6.78918 13.4916 6.79907 13.4898 6.80531C13.4887 6.80935 13.486 6.81674 13.4729 6.82652L10.0153 9.4104C9.79178 9.57746 9.69833 9.86767 9.78233 10.1338L11.099 14.3018C11.104 14.3177 11.1018 14.3253 11.1004 14.3291C11.0982 14.3352 11.0927 14.3436 11.0827 14.3506C11.0726 14.3578 11.0629 14.3602 11.0564 14.3604C11.0524 14.3604 11.0445 14.36 11.0311 14.35L7.61108 11.7942C7.37811 11.6201 7.05835 11.6201 6.82539 11.7942L3.40534 14.35C3.39198 14.36 3.38411 14.3604 3.38003 14.3604C3.37357 14.3602 3.36385 14.3578 3.35382 14.3506C3.34377 14.3436 3.33829 14.3352 3.33605 14.3291C3.33464 14.3253 3.33241 14.3177 3.33743 14.3018L4.65409 10.1338C4.73815 9.86767 4.64471 9.57746 4.42116 9.4104L0.963545 6.82652C0.950464 6.81674 0.947769 6.80935 0.946631 6.80532C0.944872 6.79907 0.9444 6.78918 0.948224 6.77768C0.952047 6.76617 0.958347 6.75853 0.963492 6.75459C0.966817 6.75203 0.973397 6.74773 0.989734 6.74773H5.24281C5.52909 6.74773 5.78234 6.56214 5.86858 6.28915L7.17652 2.14874Z" fill="#CCCCCC" stroke="#CCCCCC" stroke-width="0.6125"/>
</g>
<defs>
<clipPath id="clip0_448_5582">
<rect width="14" height="16" fill="white"/>
</clipPath>
</defs>
</svg>
