<svg width="26" height="26" viewBox="0 0 26 26" fill="none" xmlns="http://www.w3.org/2000/svg">
<g filter="url(#filter0_d_105_1566)">
<circle cx="13" cy="12" r="12" fill="#42C0F5"/>
</g>
<g clip-path="url(#clip0_105_1566)">
<path d="M19.7747 7.77062C19.2657 7.99575 18.726 8.1436 18.1734 8.20928C18.7559 7.86091 19.1918 7.31263 19.4 6.66662C18.8534 6.99195 18.254 7.21995 17.6294 7.34328C17.2098 6.89434 16.6536 6.59659 16.0473 6.49634C15.4411 6.39609 14.8187 6.49895 14.2769 6.78892C13.7351 7.07889 13.3043 7.53974 13.0514 8.09981C12.7986 8.65989 12.7379 9.2878 12.8787 9.88595C11.7701 9.83039 10.6856 9.5423 9.69556 9.04039C8.70553 8.53849 7.83212 7.83398 7.13204 6.97262C6.88423 7.39825 6.75401 7.8821 6.7547 8.37462C6.7547 9.34128 7.2467 10.1953 7.9947 10.6953C7.55204 10.6813 7.11912 10.5618 6.73204 10.3466V10.3813C6.73217 11.0251 6.95495 11.649 7.3626 12.1473C7.77025 12.6456 8.33769 12.9876 8.9687 13.1153C8.55778 13.2266 8.12691 13.2431 7.7087 13.1633C7.88661 13.7174 8.23337 14.2021 8.70043 14.5494C9.16749 14.8966 9.73145 15.0891 10.3134 15.1C9.73502 15.5542 9.07282 15.8899 8.36462 16.0881C7.65642 16.2862 6.91612 16.3428 6.18604 16.2546C7.4605 17.0742 8.9441 17.5094 10.4594 17.5079C15.588 17.5079 18.3927 13.2593 18.3927 9.57462C18.3927 9.45462 18.3894 9.33328 18.384 9.21462C18.9299 8.82006 19.4011 8.3313 19.7754 7.77128L19.7747 7.77062Z" fill="white"/>
</g>
<defs>
<filter id="filter0_d_105_1566" x="0" y="0" width="26" height="26" filterUnits="userSpaceOnUse" color-interpolation-filters="sRGB">
<feFlood flood-opacity="0" result="BackgroundImageFix"/>
<feColorMatrix in="SourceAlpha" type="matrix" values="0 0 0 0 0 0 0 0 0 0 0 0 0 0 0 0 0 0 127 0" result="hardAlpha"/>
<feOffset dy="1"/>
<feGaussianBlur stdDeviation="0.5"/>
<feColorMatrix type="matrix" values="0 0 0 0 0 0 0 0 0 0 0 0 0 0 0 0 0 0 0.1 0"/>
<feBlend mode="normal" in2="BackgroundImageFix" result="effect1_dropShadow_105_1566"/>
<feBlend mode="normal" in="SourceGraphic" in2="effect1_dropShadow_105_1566" result="shape"/>
</filter>
<clipPath id="clip0_105_1566">
<rect width="16" height="16" fill="white" transform="translate(5 4)"/>
</clipPath>
</defs>
</svg>
