<svg width="42" height="42" viewBox="0 0 42 42" fill="none" xmlns="http://www.w3.org/2000/svg">
<g filter="url(#filter0_d_105_2189)">
<circle cx="21" cy="20" r="20" fill="#42C0F5"/>
</g>
<g clip-path="url(#clip0_105_2189)">
<path d="M31.1618 13.6559C30.3984 13.9936 29.5888 14.2154 28.7598 14.3139C29.6336 13.7914 30.2875 12.9689 30.5998 11.9999C29.7798 12.4879 28.8808 12.8299 27.9438 13.0149C27.3144 12.3415 26.4802 11.8949 25.5708 11.7445C24.6614 11.5941 23.7277 11.7484 22.9151 12.1834C22.1024 12.6183 21.4562 13.3096 21.0769 14.1497C20.6977 14.9898 20.6066 15.9317 20.8178 16.8289C19.1549 16.7456 17.5281 16.3135 16.0431 15.5606C14.5581 14.8077 13.2479 13.751 12.1978 12.4589C11.8261 13.0974 11.6308 13.8232 11.6318 14.5619C11.6318 16.0119 12.3698 17.2929 13.4918 18.0429C12.8278 18.022 12.1784 17.8427 11.5978 17.5199V17.5719C11.598 18.5376 11.9322 19.4735 12.5437 20.221C13.1551 20.9684 14.0063 21.4814 14.9528 21.6729C14.3364 21.84 13.6901 21.8646 13.0628 21.7449C13.3297 22.5762 13.8498 23.3031 14.5504 23.824C15.251 24.3449 16.0969 24.6337 16.9698 24.6499C16.1023 25.3313 15.109 25.8349 14.0467 26.1321C12.9844 26.4293 11.8739 26.5142 10.7788 26.3819C12.6905 27.6114 14.9159 28.264 17.1888 28.2619C24.8818 28.2619 29.0888 21.8889 29.0888 16.3619C29.0888 16.1819 29.0838 15.9999 29.0758 15.8219C29.8947 15.2301 30.6014 14.4969 31.1628 13.6569L31.1618 13.6559Z" fill="white"/>
</g>
<defs>
<filter id="filter0_d_105_2189" x="0" y="0" width="42" height="42" filterUnits="userSpaceOnUse" color-interpolation-filters="sRGB">
<feFlood flood-opacity="0" result="BackgroundImageFix"/>
<feColorMatrix in="SourceAlpha" type="matrix" values="0 0 0 0 0 0 0 0 0 0 0 0 0 0 0 0 0 0 127 0" result="hardAlpha"/>
<feOffset dy="1"/>
<feGaussianBlur stdDeviation="0.5"/>
<feColorMatrix type="matrix" values="0 0 0 0 0 0 0 0 0 0 0 0 0 0 0 0 0 0 0.1 0"/>
<feBlend mode="normal" in2="BackgroundImageFix" result="effect1_dropShadow_105_2189"/>
<feBlend mode="normal" in="SourceGraphic" in2="effect1_dropShadow_105_2189" result="shape"/>
</filter>
<clipPath id="clip0_105_2189">
<rect width="24" height="24" fill="white" transform="translate(9 8)"/>
</clipPath>
</defs>
</svg>
