<svg width="20" height="22" viewBox="0 0 20 22" fill="none" xmlns="http://www.w3.org/2000/svg">
<path d="M17.0275 17H3.33411M10.1808 17V11M13.1151 17V13M7.24652 17V13M17.0275 21V10.33C17.3907 10.1947 17.7242 9.98734 18.0088 9.7199C18.2934 9.45246 18.5235 9.13017 18.686 8.77155C18.8484 8.41293 18.94 8.02504 18.9554 7.63014C18.9709 7.23524 18.9098 6.84111 18.7759 6.47039C18.6419 6.09967 18.4376 5.75965 18.1748 5.46986C17.912 5.18007 17.5957 4.94621 17.2442 4.78171C16.8927 4.61721 16.5129 4.52531 16.1266 4.51129C15.7403 4.49727 15.3551 4.5614 14.9931 4.7C14.6312 2.874 12.587 1 10.1808 1C7.77469 1 5.73046 2.874 5.36856 4.7C4.63832 4.42417 3.83082 4.45623 3.1237 4.7891C2.41658 5.12198 1.86776 5.72842 1.59798 6.475C1.32819 7.22158 1.35954 8.04716 1.68513 8.77011C2.01072 9.49307 2.60387 10.0542 3.33411 10.33V21H17.0275Z" stroke="black" stroke-width="2"/>
</svg>
