<svg width="34" height="36" viewBox="0 0 34 36" fill="none" xmlns="http://www.w3.org/2000/svg">
<g filter="url(#filter0_d_486_1452)">
<path d="M16.6594 0.0102121C12.0781 0.0130434 8.33267 4.93507 8.33632 10.9969C8.33998 17.0586 12.0913 21.976 16.6726 21.9732C21.254 21.9704 24.9994 17.0483 24.9957 10.9866C24.9921 4.92478 21.2407 0.00738081 16.6594 0.0102121ZM7.96811 21.9786C3.5535 22.2009 0.0156765 26.0247 0.0185364 30.7687L0.0211845 35.1613L33.34 35.1407L33.3374 30.7481C33.3345 26.0041 29.8337 22.1847 25.3772 21.9678C23.1298 24.6487 20.0488 26.3637 16.6753 26.3658C13.3018 26.3679 10.2187 24.6567 7.96811 21.9786Z" fill="#F3CA9E"/>
</g>
<defs>
<filter id="filter0_d_486_1452" x="0.0175781" y="0.00976562" width="33.3223" height="35.1514" filterUnits="userSpaceOnUse" color-interpolation-filters="sRGB">
<feFlood flood-opacity="0" result="BackgroundImageFix"/>
<feColorMatrix in="SourceAlpha" type="matrix" values="0 0 0 0 0 0 0 0 0 0 0 0 0 0 0 0 0 0 127 0" result="hardAlpha"/>
<feOffset/>
<feComposite in2="hardAlpha" operator="out"/>
<feColorMatrix type="matrix" values="0 0 0 0 1 0 0 0 0 1 0 0 0 0 1 0 0 0 0.01 0"/>
<feBlend mode="normal" in2="BackgroundImageFix" result="effect1_dropShadow_486_1452"/>
<feBlend mode="normal" in="SourceGraphic" in2="effect1_dropShadow_486_1452" result="shape"/>
</filter>
</defs>
</svg>
