<svg width="57" height="50" viewBox="0 0 57 50" fill="none" xmlns="http://www.w3.org/2000/svg">
<path d="M23.819 30H44.8358V25H29.4235L23.819 30ZM11.2089 30H18.0744L34.6076 15.375C34.8878 15.125 35.0279 14.8125 35.0279 14.4375C35.0279 14.0625 34.8878 13.75 34.6076 13.5L29.7037 9.125C29.4235 8.875 29.0732 8.75 28.6529 8.75C28.2325 8.75 27.8822 8.875 27.602 9.125L11.2089 23.875V30ZM0 50V5C0 3.625 0.549238 2.4475 1.64771 1.4675C2.74619 0.487504 4.06511 -0.00166242 5.60447 4.24448e-06H50.4402C51.9815 4.24448e-06 53.3013 0.490004 54.3998 1.47C55.4983 2.45 56.0466 3.62667 56.0447 5V35C56.0447 36.375 55.4955 37.5525 54.397 38.5325C53.2985 39.5125 51.9796 40.0017 50.4402 40H11.2089L0 50ZM5.60447 37.9375L8.8971 35H50.4402V5H5.60447V37.9375Z" fill="#FBF7F7"/>
</svg>
