<svg width="21" height="22" viewBox="0 0 21 22" fill="none" xmlns="http://www.w3.org/2000/svg">
<path d="M17.0713 17H3.37787M10.2246 17V11M13.1589 17V13M7.29028 17V13M17.0713 21V10.33C17.4345 10.1947 17.768 9.98734 18.0526 9.7199C18.3372 9.45246 18.5673 9.13017 18.7298 8.77155C18.8922 8.41293 18.9838 8.02504 18.9992 7.63014C19.0146 7.23524 18.9536 6.84111 18.8196 6.47039C18.6857 6.09967 18.4814 5.75965 18.2186 5.46986C17.9557 5.18007 17.6395 4.94621 17.288 4.78171C16.9365 4.61721 16.5567 4.52531 16.1704 4.51129C15.7841 4.49727 15.3989 4.5614 15.0368 4.7C14.675 2.874 12.6307 1 10.2246 1C7.81845 1 5.77422 2.874 5.41232 4.7C4.68209 4.42417 3.87459 4.45623 3.16747 4.7891C2.46034 5.12198 1.91152 5.72842 1.64174 6.475C1.37195 7.22158 1.4033 8.04716 1.72889 8.77011C2.05448 9.49307 2.64763 10.0542 3.37787 10.33V21H17.0713Z" stroke="black" stroke-width="2"/>
</svg>
