<svg width="57" height="50" viewBox="0 0 57 50" fill="none" xmlns="http://www.w3.org/2000/svg">
<path d="M24.0705 30H45.0349V25H29.661L24.0705 30ZM11.4919 30H18.3403L34.8322 15.375C35.1117 15.125 35.2515 14.8125 35.2515 14.4375C35.2515 14.0625 35.1117 13.75 34.8322 13.5L29.9405 9.125C29.661 8.875 29.3116 8.75 28.8923 8.75C28.473 8.75 28.1236 8.875 27.8441 9.125L11.4919 23.875V30ZM0.310913 50V5C0.310913 3.625 0.858782 2.4475 1.95452 1.4675C3.05026 0.487504 4.36589 -0.00166242 5.90141 4.24448e-06H50.6254C52.1628 4.24448e-06 53.4793 0.490004 54.5751 1.47C55.6708 2.45 56.2177 3.62667 56.2159 5V35C56.2159 36.375 55.668 37.5525 54.5723 38.5325C53.4765 39.5125 52.1609 40.0017 50.6254 40H11.4919L0.310913 50ZM5.90141 37.9375L9.18583 35H50.6254V5H5.90141V37.9375Z" fill="#FBF7F7"/>
</svg>
