<svg width="35" height="36" viewBox="0 0 35 36" fill="none" xmlns="http://www.w3.org/2000/svg">
<path d="M17.5943 0.0102121C13.0072 0.0130434 9.25716 4.93507 9.26082 10.9969C9.26448 17.0586 13.0205 21.976 17.6076 21.9732C22.1946 21.9704 25.9447 17.0484 25.9411 10.9866C25.9374 4.92478 22.1814 0.00738081 17.5943 0.0102121ZM8.89214 21.9786C4.47201 22.2009 0.929759 26.0247 0.932622 30.7687L0.935273 35.1613L34.2958 35.1407L34.2931 30.7481C34.2903 26.0041 30.7851 22.1847 26.323 21.9678C24.0728 24.6487 20.988 26.3637 17.6102 26.3658C14.2325 26.3679 11.1456 24.6567 8.89214 21.9786Z" fill="#F3CA9E"/>
</svg>
