<svg width="56" height="50" viewBox="0 0 56 50" fill="none" xmlns="http://www.w3.org/2000/svg">
<path d="M23.7596 30H44.724V25H29.3501L23.7596 30ZM11.181 30H18.0293L34.5213 15.375C34.8008 15.125 34.9406 14.8125 34.9406 14.4375C34.9406 14.0625 34.8008 13.75 34.5213 13.5L29.6296 9.125C29.3501 8.875 29.0007 8.75 28.5814 8.75C28.1621 8.75 27.8127 8.875 27.5332 9.125L11.181 23.875V30ZM0 50V5C0 3.625 0.547869 2.4475 1.64361 1.4675C2.73934 0.487504 4.05497 -0.00166242 5.5905 4.24448e-06H50.3145C51.8518 4.24448e-06 53.1684 0.490004 54.2641 1.47C55.3599 2.45 55.9068 3.62667 55.905 5V35C55.905 36.375 55.3571 37.5525 54.2614 38.5325C53.1656 39.5125 51.85 40.0017 50.3145 40H11.181L0 50ZM5.5905 37.9375L8.87491 35H50.3145V5H5.5905V37.9375Z" fill="#FBF7F7"/>
</svg>
