<svg width="21" height="21" viewBox="0 0 21 21" fill="none" xmlns="http://www.w3.org/2000/svg">
<path d="M14.1314 0C14.3908 0 14.6396 0.105357 14.823 0.292893C15.0065 0.48043 15.1095 0.734784 15.1095 1V1.999L20 2V8L18.0243 7.999L20.7307 15.595C20.9145 16.103 20.9956 16.6439 20.9688 17.1849C20.9421 17.7259 20.8082 18.2557 20.5752 18.7422C20.3422 19.2287 20.015 19.6617 19.6134 20.015C19.2118 20.3684 18.7442 20.6346 18.239 20.7977C17.7337 20.9607 17.2014 21.0171 16.6741 20.9635C16.1469 20.9099 15.6359 20.7473 15.1719 20.4857C14.708 20.2241 14.3009 19.8689 13.9752 19.4416C13.6496 19.0143 13.4122 18.5239 13.2775 18H9.11767C8.89527 18.8776 8.38799 19.6521 7.6789 20.1965C6.96981 20.7409 6.10093 21.023 5.21454 20.9966C4.32815 20.9702 3.47679 20.6369 2.79987 20.0513C2.12294 19.4657 1.66057 18.6624 1.48847 17.773C1.1715 17.604 0.90596 17.3493 0.72074 17.0367C0.53552 16.7241 0.437721 16.3655 0.437989 16V11H9.24091C9.24094 11.2449 9.3289 11.4813 9.48809 11.6644C9.64729 11.8474 9.86665 11.9643 10.1046 11.993L10.219 12H12.1752C12.4148 12 12.646 11.91 12.825 11.7473C13.0041 11.5845 13.1184 11.3603 13.1465 11.117L13.1533 11V2H10.219V0H14.1314ZM5.3285 15C4.80968 15 4.31211 15.2107 3.94525 15.5858C3.57839 15.9609 3.3723 16.4696 3.3723 17C3.3723 17.5304 3.57839 18.0391 3.94525 18.4142C4.31211 18.7893 4.80968 19 5.3285 19C5.84732 19 6.34489 18.7893 6.71174 18.4142C7.0786 18.0391 7.2847 17.5304 7.2847 17C7.2847 16.4696 7.0786 15.9609 6.71174 15.5858C6.34489 15.2107 5.84732 15 5.3285 15ZM17.0657 15C16.5469 15 16.0493 15.2107 15.6825 15.5858C15.3156 15.9609 15.1095 16.4696 15.1095 17C15.1095 17.5304 15.3156 18.0391 15.6825 18.4142C16.0493 18.7893 16.5469 19 17.0657 19C17.5845 19 18.0821 18.7893 18.449 18.4142C18.8158 18.0391 19.0219 17.5304 19.0219 17C19.0219 16.4696 18.8158 15.9609 18.449 15.5858C18.0821 15.2107 17.5845 15 17.0657 15ZM8.26281 2C8.52222 2 8.771 2.10536 8.95443 2.29289C9.13786 2.48043 9.24091 2.73478 9.24091 3V10H0.437989V3C0.437989 2.73478 0.541039 2.48043 0.724468 2.29289C0.907898 2.10536 1.15668 2 1.41609 2H8.26281ZM18.0438 4H15.1095V6H18.0438V4ZM7.2847 4H2.39419V5H7.2847V4Z" fill="black"/>
</svg>
