<svg width="57" height="50" viewBox="0 0 57 50" fill="none" xmlns="http://www.w3.org/2000/svg">
<path d="M24.375 30H45.3786V25H29.9759L24.375 30ZM11.7728 30H18.634L35.1568 15.375C35.4369 15.125 35.5769 14.8125 35.5769 14.4375C35.5769 14.0625 35.4369 13.75 35.1568 13.5L30.256 9.125C29.9759 8.875 29.6259 8.75 29.2058 8.75C28.7857 8.75 28.4357 8.875 28.1556 9.125L11.7728 23.875V30ZM0.570801 50V5C0.570801 3.625 1.1197 2.4475 2.21749 1.4675C3.31528 0.487504 4.63338 -0.00166242 6.17178 4.24448e-06H50.9796C52.5199 4.24448e-06 53.8389 0.490004 54.9367 1.47C56.0345 2.45 56.5824 3.62667 56.5806 5V35C56.5806 36.375 56.0317 37.5525 54.9339 38.5325C53.8361 39.5125 52.518 40.0017 50.9796 40H11.7728L0.570801 50ZM6.17178 37.9375L9.46235 35H50.9796V5H6.17178V37.9375Z" fill="#FBF7F7"/>
</svg>
