<svg width="57" height="50" viewBox="0 0 57 50" fill="none" xmlns="http://www.w3.org/2000/svg">
<path d="M24.0702 30H45.0345V25H29.6606L24.0702 30ZM11.4915 30H18.3399L34.8319 15.375C35.1114 15.125 35.2511 14.8125 35.2511 14.4375C35.2511 14.0625 35.1114 13.75 34.8319 13.5L29.9402 9.125C29.6607 8.875 29.3112 8.75 28.892 8.75C28.4727 8.75 28.1233 8.875 27.8437 9.125L11.4915 23.875V30ZM0.310547 50V5C0.310547 3.625 0.858416 2.4475 1.95415 1.4675C3.04989 0.487504 4.36552 -0.00166242 5.90104 4.24448e-06H50.625C52.1624 4.24448e-06 53.479 0.490004 54.5747 1.47C55.6704 2.45 56.2174 3.62667 56.2155 5V35C56.2155 36.375 55.6676 37.5525 54.5719 38.5325C53.4762 39.5125 52.1605 40.0017 50.625 40H11.4915L0.310547 50ZM5.90104 37.9375L9.18546 35H50.625V5H5.90104V37.9375Z" fill="#FBF7F7"/>
</svg>
