<svg width="57" height="50" viewBox="0 0 57 50" fill="none" xmlns="http://www.w3.org/2000/svg">
<path d="M24.0706 30H45.035V25H29.6611L24.0706 30ZM11.492 30H18.3404L34.8323 15.375C35.1119 15.125 35.2516 14.8125 35.2516 14.4375C35.2516 14.0625 35.1119 13.75 34.8323 13.5L29.9407 9.125C29.6611 8.875 29.3117 8.75 28.8924 8.75C28.4732 8.75 28.1238 8.875 27.8442 9.125L11.492 23.875V30ZM0.311035 50V5C0.311035 3.625 0.858904 2.4475 1.95464 1.4675C3.05038 0.487504 4.36601 -0.00166242 5.90153 4.24448e-06H50.6255C52.1629 4.24448e-06 53.4794 0.490004 54.5752 1.47C55.6709 2.45 56.2179 3.62667 56.216 5V35C56.216 36.375 55.6681 37.5525 54.5724 38.5325C53.4767 39.5125 52.161 40.0017 50.6255 40H11.492L0.311035 50ZM5.90153 37.9375L9.18595 35H50.6255V5H5.90153V37.9375Z" fill="#FBF7F7"/>
</svg>
