<svg width="57" height="50" viewBox="0 0 57 50" fill="none" xmlns="http://www.w3.org/2000/svg">
<path d="M24.0636 30H45.0672V25H29.6645L24.0636 30ZM11.4614 30H18.3226L34.8454 15.375C35.1255 15.125 35.2655 14.8125 35.2655 14.4375C35.2655 14.0625 35.1255 13.75 34.8454 13.5L29.9446 9.125C29.6645 8.875 29.3145 8.75 28.8944 8.75C28.4743 8.75 28.1243 8.875 27.8442 9.125L11.4614 23.875V30ZM0.259399 50V5C0.259399 3.625 0.808295 2.4475 1.90609 1.4675C3.00388 0.487504 4.32198 -0.00166242 5.86038 4.24448e-06H50.6682C52.2085 4.24448e-06 53.5275 0.490004 54.6253 1.47C55.7231 2.45 56.271 3.62667 56.2692 5V35C56.2692 36.375 55.7203 37.5525 54.6225 38.5325C53.5247 39.5125 52.2066 40.0017 50.6682 40H11.4614L0.259399 50ZM5.86038 37.9375L9.15095 35H50.6682V5H5.86038V37.9375Z" fill="#FBF7F7"/>
</svg>
