<svg width="57" height="50" viewBox="0 0 57 50" fill="none" xmlns="http://www.w3.org/2000/svg">
<path d="M24.3751 30H45.3787V25H29.9761L24.3751 30ZM11.7729 30H18.6341L35.157 15.375C35.437 15.125 35.577 14.8125 35.577 14.4375C35.577 14.0625 35.437 13.75 35.157 13.5L30.2561 9.125C29.9761 8.875 29.626 8.75 29.2059 8.75C28.7858 8.75 28.4358 8.875 28.1557 9.125L11.7729 23.875V30ZM0.570923 50V5C0.570923 3.625 1.11982 2.4475 2.21761 1.4675C3.3154 0.487504 4.6335 -0.00166242 6.1719 4.24448e-06H50.9797C52.52 4.24448e-06 53.839 0.490004 54.9368 1.47C56.0346 2.45 56.5826 3.62667 56.5807 5V35C56.5807 36.375 56.0318 37.5525 54.934 38.5325C53.8362 39.5125 52.5181 40.0017 50.9797 40H11.7729L0.570923 50ZM6.1719 37.9375L9.46247 35H50.9797V5H6.1719V37.9375Z" fill="#FBF7F7"/>
</svg>
