<svg width="20" height="22" viewBox="0 0 20 22" fill="none" xmlns="http://www.w3.org/2000/svg">
<path d="M16.6115 17H2.91803M9.76475 17V11M12.6991 17V13M6.83044 17V13M16.6115 21V10.33C16.9747 10.1947 17.3081 9.98734 17.5927 9.7199C17.8773 9.45246 18.1075 9.13017 18.2699 8.77155C18.4324 8.41293 18.5239 8.02504 18.5394 7.63014C18.5548 7.23524 18.4938 6.84111 18.3598 6.47039C18.2258 6.09967 18.0216 5.75965 17.7587 5.46986C17.4959 5.18007 17.1796 4.94621 16.8282 4.78171C16.4767 4.61721 16.0969 4.52531 15.7106 4.51129C15.3242 4.49727 14.939 4.5614 14.577 4.7C14.2151 2.874 12.1709 1 9.76475 1C7.35861 1 5.31438 2.874 4.95248 4.7C4.22225 4.42417 3.41475 4.45623 2.70763 4.7891C2.0005 5.12198 1.45168 5.72842 1.1819 6.475C0.912114 7.22158 0.943464 8.04716 1.26905 8.77011C1.59464 9.49307 2.18779 10.0542 2.91803 10.33V21H16.6115Z" stroke="black" stroke-width="2"/>
</svg>
