<svg width="26" height="26" viewBox="0 0 26 26" fill="none" xmlns="http://www.w3.org/2000/svg">
<g filter="url(#filter0_d_105_1576)">
<circle cx="13" cy="12" r="12" fill="#EF5043"/>
</g>
<g clip-path="url(#clip0_105_1576)">
<path d="M19.3622 8.33208C19.6668 9.52008 19.6668 12.0001 19.6668 12.0001C19.6668 12.0001 19.6668 14.4801 19.3622 15.6681C19.1928 16.3247 18.6975 16.8414 18.0702 17.0161C16.9308 17.3334 13.0002 17.3334 13.0002 17.3334C13.0002 17.3334 9.0715 17.3334 7.93016 17.0161C7.30016 16.8387 6.8055 16.3227 6.63816 15.6681C6.3335 14.4801 6.3335 12.0001 6.3335 12.0001C6.3335 12.0001 6.3335 9.52008 6.63816 8.33208C6.8075 7.67541 7.30283 7.15875 7.93016 6.98408C9.0715 6.66675 13.0002 6.66675 13.0002 6.66675C13.0002 6.66675 16.9308 6.66675 18.0702 6.98408C18.7002 7.16141 19.1948 7.67741 19.3622 8.33208ZM11.6668 14.3334L15.6668 12.0001L11.6668 9.66675V14.3334Z" fill="white"/>
</g>
<defs>
<filter id="filter0_d_105_1576" x="0" y="0" width="26" height="26" filterUnits="userSpaceOnUse" color-interpolation-filters="sRGB">
<feFlood flood-opacity="0" result="BackgroundImageFix"/>
<feColorMatrix in="SourceAlpha" type="matrix" values="0 0 0 0 0 0 0 0 0 0 0 0 0 0 0 0 0 0 127 0" result="hardAlpha"/>
<feOffset dy="1"/>
<feGaussianBlur stdDeviation="0.5"/>
<feColorMatrix type="matrix" values="0 0 0 0 0 0 0 0 0 0 0 0 0 0 0 0 0 0 0.1 0"/>
<feBlend mode="normal" in2="BackgroundImageFix" result="effect1_dropShadow_105_1576"/>
<feBlend mode="normal" in="SourceGraphic" in2="effect1_dropShadow_105_1576" result="shape"/>
</filter>
<clipPath id="clip0_105_1576">
<rect width="16" height="16" fill="white" transform="translate(5 4)"/>
</clipPath>
</defs>
</svg>
